<svg width="50" height="50" viewBox="0 0 50 50" fill="none" xmlns="http://www.w3.org/2000/svg">
<g clip-path="url(#clip0_2417_365)">
<path d="M46.875 14.0625H20.3125C19.6911 14.0632 19.0954 14.3103 18.656 14.7497C18.2166 15.1891 17.9694 15.7849 17.9688 16.4062V46.875C17.9694 47.4964 18.2166 48.0921 18.656 48.5315C19.0954 48.9709 19.6911 49.2181 20.3125 49.2188H46.875C47.4964 49.2181 48.0921 48.9709 48.5315 48.5315C48.9709 48.0921 49.2181 47.4964 49.2188 46.875V16.4062C49.2181 15.7849 48.9709 15.1891 48.5315 14.7497C48.0921 14.3103 47.4964 14.0632 46.875 14.0625ZM29.6875 17.9688H37.5C37.7072 17.9688 37.9059 18.0511 38.0524 18.1976C38.1989 18.3441 38.2812 18.5428 38.2812 18.75C38.2812 18.9572 38.1989 19.1559 38.0524 19.3024C37.9059 19.4489 37.7072 19.5312 37.5 19.5312H29.6875C29.4803 19.5312 29.2816 19.4489 29.1351 19.3024C28.9886 19.1559 28.9062 18.9572 28.9062 18.75C28.9062 18.5428 28.9886 18.3441 29.1351 18.1976C29.2816 18.0511 29.4803 17.9688 29.6875 17.9688ZM45.8648 42.7398L42.7398 45.8648C42.6306 45.9741 42.4914 46.0485 42.3399 46.0787C42.1883 46.1088 42.0313 46.0934 41.8885 46.0342C41.7458 45.9751 41.6237 45.875 41.5379 45.7465C41.4521 45.618 41.4062 45.467 41.4062 45.3125V44.0735L39.6148 45.8649C39.5055 45.9739 39.3663 46.048 39.2149 46.078C39.0634 46.108 38.9065 46.0924 38.7639 46.0333C38.6212 45.9743 38.4993 45.8743 38.4134 45.746C38.3275 45.6177 38.2815 45.4669 38.2812 45.3125V44.0735L36.4898 45.8649C36.343 46.0099 36.1448 46.0909 35.9385 46.0902C35.7322 46.0896 35.5345 46.0073 35.3886 45.8614C35.2427 45.7155 35.1605 45.5178 35.1598 45.3115C35.1592 45.1052 35.2402 44.907 35.3852 44.7602L38.5102 41.6352C38.6195 41.5262 38.7587 41.4521 38.9101 41.4221C39.0616 41.3921 39.2185 41.4076 39.3611 41.4667C39.5037 41.5258 39.6257 41.6257 39.7116 41.754C39.7975 41.8823 39.8435 42.0331 39.8438 42.1875V43.4265L41.6352 41.6351C41.7445 41.5262 41.8837 41.452 42.0351 41.422C42.1866 41.3921 42.3435 41.4076 42.4861 41.4667C42.6288 41.5258 42.7507 41.6257 42.8366 41.754C42.9225 41.8823 42.9685 42.0331 42.9688 42.1875V43.4265L44.7602 41.6351C44.907 41.4901 45.1052 41.4091 45.3115 41.4098C45.5178 41.4104 45.7155 41.4927 45.8614 41.6386C46.0073 41.7845 46.0895 41.9822 46.0902 42.1885C46.0908 42.3948 46.0098 42.593 45.8648 42.7398ZM45.3125 39.0625H21.875C21.6678 39.0625 21.4691 38.9802 21.3226 38.8337C21.1761 38.6872 21.0938 38.4885 21.0938 38.2812C21.0938 38.074 21.1761 37.8753 21.3226 37.7288C21.4691 37.5823 21.6678 37.5 21.875 37.5H45.3125C45.5197 37.5 45.7184 37.5823 45.8649 37.7288C46.0114 37.8753 46.0938 38.074 46.0938 38.2812C46.0938 38.4885 46.0114 38.6872 45.8649 38.8337C45.7184 38.9802 45.5197 39.0625 45.3125 39.0625ZM45.3125 35.1562H21.875C21.6678 35.1562 21.4691 35.0739 21.3226 34.9274C21.1761 34.7809 21.0938 34.5822 21.0938 34.375C21.0938 34.1678 21.1761 33.9691 21.3226 33.8226C21.4691 33.6761 21.6678 33.5938 21.875 33.5938H45.3125C45.5197 33.5938 45.7184 33.6761 45.8649 33.8226C46.0114 33.9691 46.0938 34.1678 46.0938 34.375C46.0938 34.5822 46.0114 34.7809 45.8649 34.9274C45.7184 35.0739 45.5197 35.1562 45.3125 35.1562ZM45.3125 31.25H22.6562C22.449 31.25 22.2503 31.1677 22.1038 31.0212C21.9573 30.8747 21.875 30.676 21.875 30.4688C21.875 30.2615 21.9573 30.0628 22.1038 29.9163C22.2503 29.7698 22.449 29.6875 22.6562 29.6875H45.3125C45.5197 29.6875 45.7184 29.7698 45.8649 29.9163C46.0114 30.0628 46.0938 30.2615 46.0938 30.4688C46.0938 30.676 46.0114 30.8747 45.8649 31.0212C45.7184 31.1677 45.5197 31.25 45.3125 31.25ZM45.3125 27.3438H35.9375C35.7303 27.3438 35.5316 27.2614 35.3851 27.1149C35.2386 26.9684 35.1562 26.7697 35.1562 26.5625C35.1562 26.3553 35.2386 26.1566 35.3851 26.0101C35.5316 25.8636 35.7303 25.7812 35.9375 25.7812H45.3125C45.5197 25.7812 45.7184 25.8636 45.8649 26.0101C46.0114 26.1566 46.0938 26.3553 46.0938 26.5625C46.0938 26.7697 46.0114 26.9684 45.8649 27.1149C45.7184 27.2614 45.5197 27.3438 45.3125 27.3438ZM45.3125 23.4375H35.9375C35.7303 23.4375 35.5316 23.3552 35.3851 23.2087C35.2386 23.0622 35.1562 22.8635 35.1562 22.6562C35.1562 22.449 35.2386 22.2503 35.3851 22.1038C35.5316 21.9573 35.7303 21.875 35.9375 21.875H45.3125C45.5197 21.875 45.7184 21.9573 45.8649 22.1038C46.0114 22.2503 46.0938 22.449 46.0938 22.6562C46.0938 22.8635 46.0114 23.0622 45.8649 23.2087C45.7184 23.3552 45.5197 23.4375 45.3125 23.4375Z" fill="#CCDBFF"/>
<path d="M10.1563 17.9688C8.30205 17.9687 6.48949 18.5186 4.94778 19.5487C3.40607 20.5789 2.20446 22.043 1.49488 23.7561C0.785312 25.4692 0.599656 27.3541 0.961392 29.1727C1.32313 30.9913 2.21601 32.6618 3.52713 33.9729C4.83825 35.284 6.50871 36.1769 8.32728 36.5386C10.1459 36.9003 12.0309 36.7147 13.7439 36.0051C15.457 35.2955 16.9211 34.0939 17.9513 32.5522C18.9814 31.0105 19.5313 29.198 19.5313 27.3438C19.5284 24.8582 18.5398 22.4753 16.7822 20.7178C15.0247 18.9602 12.6418 17.9716 10.1563 17.9688ZM10.1563 35.1562C8.258 35.1558 6.42554 34.4607 5.00464 33.2019C6.42602 31.9443 8.25836 31.25 10.1563 31.25C12.0542 31.25 13.8865 31.9443 15.3079 33.2019C13.887 34.4607 12.0545 35.1558 10.1563 35.1562ZM7.03125 26.5625C7.03125 25.9444 7.21453 25.3402 7.55791 24.8263C7.90129 24.3124 8.38935 23.9119 8.96037 23.6754C9.53139 23.4389 10.1597 23.377 10.7659 23.4975C11.3721 23.6181 11.9289 23.9158 12.366 24.3528C12.803 24.7898 13.1006 25.3467 13.2212 25.9528C13.3418 26.559 13.2799 27.1874 13.0434 27.7584C12.8069 28.3294 12.4063 28.8175 11.8924 29.1608C11.3785 29.5042 10.7743 29.6875 10.1563 29.6875C9.32774 29.6866 8.53344 29.357 7.94759 28.7712C7.36175 28.1853 7.0322 27.391 7.03125 26.5625ZM16.3706 32.0591C15.4323 31.2184 14.3325 30.5778 13.1383 30.1765C13.8832 29.5623 14.4202 28.7332 14.6761 27.8023C14.932 26.8714 14.8942 25.8842 14.5679 24.9756C14.2416 24.067 13.6428 23.2813 12.8532 22.7259C12.0635 22.1704 11.1217 21.8724 10.1563 21.8724C9.19084 21.8724 8.24898 22.1704 7.45935 22.7259C6.66973 23.2813 6.07086 24.067 5.74458 24.9756C5.4183 25.8842 5.38052 26.8714 5.63641 27.8023C5.89229 28.7332 6.42936 29.5623 7.17422 30.1765C5.98002 30.5778 4.88018 31.2184 3.94189 32.0591C3.05957 30.901 2.51841 29.5194 2.37944 28.0702C2.24047 26.6209 2.50923 25.1617 3.1554 23.8571C3.80157 22.5524 4.79943 21.4543 6.03644 20.6865C7.27345 19.9188 8.70038 19.512 10.1563 19.512C11.6122 19.512 13.0391 19.9188 14.2761 20.6865C15.5131 21.4543 16.511 22.5524 17.1571 23.8571C17.8033 25.1617 18.0721 26.6209 17.9331 28.0702C17.7941 29.5194 17.253 30.901 16.3706 32.0591Z" fill="#151A6A"/>
<path d="M30.4688 17.9688C28.6146 17.9688 26.802 18.5186 25.2603 19.5487C23.7186 20.5789 22.517 22.043 21.8074 23.7561C21.0978 25.4692 20.9122 27.3541 21.2739 29.1727C21.6356 30.9913 22.5285 32.6618 23.8396 33.9729C25.1507 35.284 26.8212 36.1769 28.6398 36.5386C30.4584 36.9003 32.3434 36.7147 34.0564 36.0051C35.7695 35.2955 37.2336 34.0939 38.2638 32.5522C39.2939 31.0105 39.8438 29.198 39.8438 27.3438C39.8409 24.8582 38.8523 22.4753 37.0947 20.7178C35.3372 18.9602 32.9543 17.9716 30.4688 17.9688ZM30.4688 35.1562C28.5705 35.1558 26.738 34.4607 25.3171 33.2019C26.7385 31.9442 28.5708 31.25 30.4687 31.25C32.3665 31.25 34.1988 31.9444 35.6201 33.2022C34.1992 34.4607 32.3669 35.1558 30.4688 35.1562ZM27.3438 26.5625C27.3438 25.9444 27.527 25.3402 27.8704 24.8263C28.2138 24.3124 28.7018 23.9119 29.2729 23.6754C29.8439 23.4389 30.4722 23.377 31.0784 23.4975C31.6846 23.6181 32.2414 23.9158 32.6785 24.3528C33.1155 24.7898 33.4131 25.3467 33.5337 25.9528C33.6543 26.559 33.5924 27.1874 33.3559 27.7584C33.1194 28.3294 32.7188 28.8175 32.2049 29.1608C31.691 29.5042 31.0868 29.6875 30.4688 29.6875C29.6402 29.6866 28.8459 29.357 28.2601 28.7712C27.6742 28.1853 27.3447 27.391 27.3438 26.5625ZM36.6831 32.0591C35.7449 31.2184 34.6451 30.5778 33.4508 30.1764C34.1957 29.5623 34.7327 28.7331 34.9886 27.8022C35.2445 26.8713 35.2067 25.8841 34.8804 24.9756C34.5541 24.067 33.9552 23.2813 33.1656 22.7258C32.376 22.1704 31.4341 21.8723 30.4687 21.8724C29.5033 21.8724 28.5614 22.1705 27.7718 22.7259C26.9822 23.2813 26.3833 24.067 26.0571 24.9756C25.7308 25.8842 25.693 26.8714 25.9489 27.8023C26.2048 28.7332 26.7418 29.5623 27.4867 30.1765C26.2925 30.5778 25.1927 31.2184 24.2544 32.0591C23.3721 30.901 22.8309 29.5194 22.6919 28.0702C22.553 26.6209 22.8217 25.1617 23.4679 23.8571C24.1141 22.5524 25.1119 21.4543 26.3489 20.6865C27.5859 19.9188 29.0129 19.512 30.4688 19.512C31.9246 19.512 33.3516 19.9188 34.5886 20.6865C35.8256 21.4543 36.8235 22.5524 37.4696 23.8571C38.1158 25.1617 38.3846 26.6209 38.2456 28.0702C38.1066 29.5194 37.5655 30.901 36.6831 32.0591Z" fill="#151A6A"/>
<path d="M29.6875 10.1563C29.6875 8.30205 29.1377 6.48949 28.1075 4.94778C27.0774 3.40607 25.6132 2.20446 23.9002 1.49488C22.1871 0.785312 20.3021 0.599656 18.4835 0.961392C16.665 1.32313 14.9945 2.21601 13.6834 3.52713C12.3723 4.83825 11.4794 6.50871 11.1176 8.32728C10.7559 10.1459 10.9416 12.0309 11.6511 13.7439C12.3607 15.457 13.5623 16.9211 15.104 17.9513C16.6457 18.9814 18.4583 19.5313 20.3125 19.5313C22.798 19.5284 25.181 18.5398 26.9385 16.7822C28.696 15.0247 29.6847 12.6418 29.6875 10.1563ZM20.3125 17.9688C18.7673 17.9688 17.2569 17.5106 15.9721 16.6521C14.6874 15.7937 13.686 14.5735 13.0947 13.146C12.5034 11.7184 12.3487 10.1476 12.6501 8.63211C12.9516 7.11663 13.6956 5.72458 14.7882 4.63198C15.8808 3.53938 17.2729 2.79532 18.7884 2.49387C20.3038 2.19242 21.8747 2.34714 23.3022 2.93845C24.7298 3.52976 25.9499 4.5311 26.8084 5.81586C27.6668 7.10062 28.125 8.61109 28.125 10.1563C28.1227 12.2276 27.2989 14.2134 25.8342 15.678C24.3696 17.1426 22.3838 17.9665 20.3125 17.9688Z" fill="#151A6A"/>
<path d="M21.4529 9.3708C21.3171 9.32284 21.1781 9.27072 21.0397 9.21936V6.74009C21.199 6.79818 21.3483 6.88071 21.4823 6.98471C21.6357 7.12236 21.8373 7.19379 22.0432 7.18344C22.249 7.17309 22.4424 7.08181 22.5813 6.92947C22.7202 6.77713 22.7932 6.57609 22.7844 6.37016C22.7757 6.16422 22.686 5.97007 22.5347 5.83002C22.1029 5.47465 21.5889 5.23297 21.0397 5.12702V4.6875C21.0397 4.4803 20.9574 4.28159 20.8109 4.13507C20.6644 3.98856 20.4657 3.90625 20.2585 3.90625C20.0513 3.90625 19.8526 3.98856 19.7061 4.13507C19.5596 4.28159 19.4772 4.4803 19.4772 4.6875V5.1847C19.4272 5.19762 19.3821 5.19934 19.3312 5.21469C18.8699 5.35969 18.4575 5.6289 18.1392 5.99281C17.8208 6.35671 17.6088 6.80125 17.5264 7.27768C17.432 7.69547 17.4542 8.13116 17.5904 8.53725C17.7266 8.94334 17.9717 9.30424 18.2989 9.58061C18.6634 9.85505 19.0589 10.0856 19.4773 10.2676V13.5685C19.0998 13.506 18.743 13.3531 18.4374 13.1229C18.264 13.0095 18.0526 12.9696 17.8498 13.0121C17.647 13.0545 17.4694 13.1757 17.3559 13.3491C17.2425 13.5226 17.2026 13.7339 17.2451 13.9367C17.2875 14.1395 17.4087 14.3172 17.5822 14.4306C18.1377 14.8349 18.7928 15.0803 19.4773 15.1403V15.625C19.4773 15.8322 19.5596 16.0309 19.7061 16.1774C19.8526 16.3239 20.0513 16.4062 20.2585 16.4062C20.4657 16.4062 20.6645 16.3239 20.811 16.1774C20.9575 16.0309 21.0398 15.8322 21.0398 15.625V15.0542C21.626 14.8991 22.1554 14.5792 22.5655 14.1326C22.9756 13.686 23.2492 13.1312 23.3538 12.534C23.4751 11.8658 23.3491 11.1763 22.9993 10.5942C22.6495 10.0122 22.0998 9.57728 21.4529 9.3708ZM19.4772 8.48961C19.4059 8.44341 19.3241 8.39887 19.2632 8.35113C19.1639 8.24957 19.093 8.12369 19.0577 7.9861C19.0223 7.84851 19.0237 7.70405 19.0618 7.56719C19.1124 7.2927 19.2598 7.04549 19.4772 6.87048V8.48961ZM21.8126 12.2749C21.7725 12.5058 21.6826 12.7251 21.5491 12.9177C21.4156 13.1103 21.2418 13.2714 21.0397 13.39V10.8938C21.3127 10.9932 21.5408 11.1873 21.6827 11.4408C21.8245 11.6943 21.8706 11.9903 21.8126 12.2749Z" fill="#151A6A"/>
</g>
<defs>
<clipPath id="clip0_2417_365">
<rect width="50" height="50" fill="white"/>
</clipPath>
</defs>
</svg>
