<svg width="26" height="26" viewBox="0 0 26 26" fill="none" xmlns="http://www.w3.org/2000/svg">
<path d="M19.3195 17.8342C19.2127 17.8342 19.107 17.8133 19.0083 17.7724C18.9097 17.7316 18.82 17.6717 18.7445 17.5962C18.669 17.5207 18.6092 17.4311 18.5683 17.3324C18.5275 17.2337 18.5065 17.128 18.5066 17.0212L18.5073 8.64107L7.2545 19.8938C7.10213 20.0462 6.89547 20.1318 6.67998 20.1318C6.46449 20.1318 6.25783 20.0462 6.10546 19.8938C5.95308 19.7415 5.86748 19.5348 5.86748 19.3193C5.86748 19.1038 5.95308 18.8972 6.10546 18.7448L17.3582 7.49202L8.97808 7.49274C8.76247 7.49274 8.55569 7.40709 8.40323 7.25463C8.25077 7.10218 8.16512 6.8954 8.16512 6.67979C8.16512 6.46418 8.25077 6.2574 8.40323 6.10495C8.55569 5.95249 8.76247 5.86684 8.97808 5.86684L19.3195 5.86684C19.4263 5.86678 19.532 5.88777 19.6307 5.9286C19.7293 5.96943 19.819 6.02931 19.8945 6.10482C19.97 6.18032 20.0299 6.26996 20.0707 6.36862C20.1115 6.46728 20.1325 6.57302 20.1325 6.67979L20.1325 17.0212C20.1325 17.128 20.1115 17.2337 20.0707 17.3324C20.0299 17.4311 19.97 17.5207 19.8945 17.5962C19.819 17.6717 19.7293 17.7316 19.6307 17.7724C19.532 17.8133 19.4263 17.8342 19.3195 17.8342Z" fill="#303D8F"/>
</svg>
