<svg width="26" height="26" viewBox="0 0 26 26" fill="none" xmlns="http://www.w3.org/2000/svg">
<path d="M13.8001 21.0128C13.7246 20.9373 13.6647 20.8477 13.6238 20.7491C13.5829 20.6505 13.5618 20.5447 13.5618 20.438C13.5618 20.3312 13.5829 20.2254 13.6238 20.1268C13.6647 20.0282 13.7246 19.9386 13.8001 19.8631L19.7263 13.938H3.81247C3.59699 13.938 3.39032 13.8523 3.23795 13.7C3.08558 13.5476 2.99997 13.3409 2.99997 13.1255C2.99997 12.91 3.08558 12.7033 3.23795 12.5509C3.39032 12.3986 3.59699 12.313 3.81247 12.313H19.7263L13.8001 6.3878C13.6477 6.23534 13.562 6.02856 13.562 5.81295C13.562 5.59734 13.6477 5.39057 13.8001 5.23811C13.9526 5.08565 14.1594 5 14.375 5C14.5906 5 14.7974 5.08565 14.9498 5.23811L22.2623 12.5506C22.3379 12.6261 22.3978 12.7157 22.4387 12.8143C22.4796 12.9129 22.5006 13.0187 22.5006 13.1255C22.5006 13.2322 22.4796 13.338 22.4387 13.4366C22.3978 13.5352 22.3379 13.6248 22.2623 13.7003L14.9498 21.0128C14.8744 21.0883 14.7847 21.1483 14.6861 21.1892C14.5875 21.23 14.4817 21.2511 14.375 21.2511C14.2682 21.2511 14.1625 21.23 14.0638 21.1892C13.9652 21.1483 13.8756 21.0883 13.8001 21.0128Z" fill="white"/>
</svg>
