<svg width="27" height="26" viewBox="0 0 27 26" fill="none" xmlns="http://www.w3.org/2000/svg">
<path d="M19.819 17.8343C19.7122 17.8344 19.6065 17.8134 19.5078 17.7725C19.4092 17.7317 19.3195 17.6718 19.244 17.5963C19.1685 17.5208 19.1087 17.4312 19.0678 17.3325C19.027 17.2339 19.006 17.1281 19.0061 17.0213L19.0068 8.6412L7.75402 19.894C7.60164 20.0463 7.39498 20.1319 7.17949 20.1319C6.964 20.1319 6.75734 20.0463 6.60497 19.894C6.45259 19.7416 6.36699 19.5349 6.36699 19.3194C6.36699 19.104 6.45259 18.8973 6.60497 18.7449L17.8577 7.49215L9.47759 7.49286C9.26198 7.49286 9.0552 7.40721 8.90274 7.25476C8.75029 7.1023 8.66464 6.89552 8.66464 6.67991C8.66463 6.46431 8.75029 6.25753 8.90274 6.10507C9.0552 5.95261 9.26198 5.86696 9.47759 5.86696L19.819 5.86696C19.9258 5.8669 20.0315 5.88789 20.1302 5.92872C20.2289 5.96956 20.3185 6.02944 20.394 6.10494C20.4695 6.18044 20.5294 6.27008 20.5702 6.36874C20.611 6.4674 20.632 6.57314 20.632 6.67991L20.632 17.0213C20.632 17.1281 20.611 17.2339 20.5702 17.3325C20.5294 17.4312 20.4695 17.5208 20.394 17.5963C20.3185 17.6718 20.2289 17.7317 20.1302 17.7725C20.0315 17.8134 19.9258 17.8344 19.819 17.8343Z" fill="#10C48D"/>
</svg>
