<svg width="50" height="50" viewBox="0 0 50 50" fill="none" xmlns="http://www.w3.org/2000/svg">
<g clip-path="url(#clip0_2417_685)">
<path d="M49.2188 26.5625V23.4375C49.2183 23.0232 49.0536 22.626 48.7606 22.3331C48.4677 22.0402 48.0705 21.8754 47.6562 21.875H15.625C15.2107 21.8754 14.8135 22.0402 14.5206 22.3331C14.2277 22.626 14.0629 23.0232 14.0625 23.4375V26.5625H49.2188ZM45.3125 23.4375H46.0938C46.3009 23.4375 46.4997 23.5198 46.6462 23.6663C46.7927 23.8128 46.875 24.0115 46.875 24.2188C46.875 24.426 46.7927 24.6247 46.6462 24.7712C46.4997 24.9177 46.3009 25 46.0938 25H45.3125C45.1053 25 44.9066 24.9177 44.7601 24.7712C44.6136 24.6247 44.5312 24.426 44.5312 24.2188C44.5312 24.0115 44.6136 23.8128 44.7601 23.6663C44.9066 23.5198 45.1053 23.4375 45.3125 23.4375ZM41.4062 23.4375H42.1875C42.3947 23.4375 42.5934 23.5198 42.7399 23.6663C42.8864 23.8128 42.9688 24.0115 42.9688 24.2188C42.9688 24.426 42.8864 24.6247 42.7399 24.7712C42.5934 24.9177 42.3947 25 42.1875 25H41.4062C41.199 25 41.0003 24.9177 40.8538 24.7712C40.7073 24.6247 40.625 24.426 40.625 24.2188C40.625 24.0115 40.7073 23.8128 40.8538 23.6663C41.0003 23.5198 41.199 23.4375 41.4062 23.4375Z" fill="#CCDBFF"/>
<path d="M35.1562 39.8438H45.3125V45.3125H35.1562V39.8438Z" fill="#CCDBFF"/>
<path d="M14.0625 28.125V47.6562C14.0629 48.0705 14.2277 48.4677 14.5206 48.7606C14.8135 49.0536 15.2107 49.2183 15.625 49.2188H47.6562C48.0705 49.2183 48.4677 49.0536 48.7606 48.7606C49.0536 48.4677 49.2183 48.0705 49.2188 47.6562V28.125H14.0625ZM31.25 42.1875C31.25 42.3947 31.1677 42.5934 31.0212 42.7399C30.8747 42.8864 30.676 42.9688 30.4688 42.9688C30.2615 42.9688 30.0628 42.8864 29.9163 42.7399C29.7698 42.5934 29.6875 42.3947 29.6875 42.1875V40.9485L26.3336 44.3024C26.2006 44.4354 26.0241 44.5159 25.8365 44.5292C25.6489 44.5425 25.4628 44.4877 25.3124 44.3749L22.6886 42.4073L17.696 46.6869C17.5386 46.8211 17.3344 46.8873 17.1282 46.8711C16.922 46.855 16.7307 46.7577 16.5961 46.6007C16.4615 46.4437 16.3946 46.2397 16.4102 46.0335C16.4257 45.8273 16.5224 45.6356 16.679 45.5006L22.1477 40.8131C22.2828 40.6975 22.4532 40.6313 22.6308 40.6256C22.8085 40.6198 22.9828 40.6748 23.1251 40.7814L25.708 42.7185L28.5828 39.8438H27.3438C27.1365 39.8438 26.9378 39.7614 26.7913 39.6149C26.6448 39.4684 26.5625 39.2697 26.5625 39.0625C26.5625 38.8553 26.6448 38.6566 26.7913 38.5101C26.9378 38.3636 27.1365 38.2812 27.3438 38.2812H30.4688C30.6757 38.2822 30.8738 38.3648 31.0201 38.5111C31.1664 38.6574 31.2491 38.8556 31.25 39.0625V42.1875ZM46.875 46.0938C46.875 46.301 46.7927 46.4997 46.6462 46.6462C46.4997 46.7927 46.3009 46.875 46.0938 46.875H34.375C34.1678 46.875 33.9691 46.7927 33.8226 46.6462C33.6761 46.4997 33.5938 46.301 33.5938 46.0938V39.0625C33.5938 38.8553 33.6761 38.6566 33.8226 38.5101C33.9691 38.3636 34.1678 38.2812 34.375 38.2812H46.0938C46.3009 38.2812 46.4997 38.3636 46.6462 38.5101C46.7927 38.6566 46.875 38.8553 46.875 39.0625V46.0938ZM46.0938 35.9375H17.1875C16.9803 35.9375 16.7816 35.8552 16.6351 35.7087C16.4886 35.5622 16.4062 35.3635 16.4062 35.1562C16.4062 34.949 16.4886 34.7503 16.6351 34.6038C16.7816 34.4573 16.9803 34.375 17.1875 34.375H46.0938C46.3009 34.375 46.4997 34.4573 46.6462 34.6038C46.7927 34.7503 46.875 34.949 46.875 35.1562C46.875 35.3635 46.7927 35.5622 46.6462 35.7087C46.4997 35.8552 46.3009 35.9375 46.0938 35.9375ZM46.0938 32.0312H23.4375C23.2303 32.0312 23.0316 31.9489 22.8851 31.8024C22.7386 31.6559 22.6562 31.4572 22.6562 31.25C22.6562 31.0428 22.7386 30.8441 22.8851 30.6976C23.0316 30.5511 23.2303 30.4688 23.4375 30.4688H46.0938C46.3009 30.4688 46.4997 30.5511 46.6462 30.6976C46.7927 30.8441 46.875 31.0428 46.875 31.25C46.875 31.4572 46.7927 31.6559 46.6462 31.8024C46.4997 31.9489 46.3009 32.0312 46.0938 32.0312Z" fill="#CCDBFF"/>
<path d="M38.2813 0.78125H35.1563C35.0766 0.783693 34.9976 0.795864 34.9209 0.817492L5.88381 9.98712C5.58878 9.4604 5.1272 9.04656 4.57153 8.81056C4.01585 8.57457 3.39753 8.52978 2.81364 8.68324C2.22976 8.83669 1.71336 9.17969 1.34551 9.6584C0.977663 10.1371 0.779196 10.7244 0.781266 11.3281V20.7031C0.779196 21.3068 0.977663 21.8941 1.34551 22.3729C1.71336 22.8516 2.22976 23.1946 2.81364 23.348C3.39753 23.5015 4.01585 23.4567 4.57153 23.2207C5.1272 22.9847 5.58878 22.5709 5.88381 22.0441L8.59377 22.8999V30.4688C8.59418 30.883 8.75893 31.2802 9.05187 31.5731C9.3448 31.8661 9.74199 32.0308 10.1563 32.0312H17.9688C18.383 32.0308 18.7802 31.8661 19.0732 31.5731C19.3661 31.2802 19.5309 30.883 19.5313 30.4688V26.3539L34.9209 31.2138C34.997 31.2379 35.0764 31.2501 35.1563 31.25H38.2813C38.6955 31.2496 39.0927 31.0848 39.3857 30.7919C39.6786 30.499 39.8433 30.1018 39.8438 29.6875V2.34375C39.8433 1.92948 39.6786 1.53229 39.3857 1.23935C39.0927 0.946417 38.6955 0.781664 38.2813 0.78125ZM4.68752 20.7031C4.68752 21.0139 4.56405 21.312 4.34428 21.5318C4.12451 21.7515 3.82644 21.875 3.51564 21.875C3.20484 21.875 2.90677 21.7515 2.687 21.5318C2.46723 21.312 2.34377 21.0139 2.34377 20.7031V11.3281C2.34377 11.0173 2.46723 10.7193 2.687 10.4995C2.90677 10.2797 3.20484 10.1562 3.51564 10.1562C3.82644 10.1562 4.12451 10.2797 4.34428 10.4995C4.56405 10.7193 4.68752 11.0173 4.68752 11.3281V20.7031ZM6.25002 20.5212V11.5101L10.9375 10.0298V22.0015L6.25002 20.5212ZM17.9688 30.4688H10.1563V23.3933L17.9688 25.8605V30.4688ZM34.375 29.4029L12.5 22.4949V9.53636L34.375 2.62833V29.4029ZM35.9375 29.6875V2.34375H38.2813L38.2824 29.6875H35.9375Z" fill="#151A6A"/>
</g>
<defs>
<clipPath id="clip0_2417_685">
<rect width="50" height="50" fill="white"/>
</clipPath>
</defs>
</svg>
