<svg width="50" height="50" viewBox="0 0 50 50" fill="none" xmlns="http://www.w3.org/2000/svg">
<g clip-path="url(#clip0_2537_533)">
<path d="M50 14.4531C50 13.8315 49.7531 13.2354 49.3135 12.7958C48.874 12.3563 48.2779 12.1094 47.6562 12.1094H14.4531C13.8315 12.1094 13.2354 12.3563 12.7958 12.7958C12.3563 13.2354 12.1094 13.8315 12.1094 14.4531V16.4062V47.6562C12.1094 48.2779 12.3563 48.874 12.7958 49.3135C13.2354 49.7531 13.8315 50 14.4531 50H47.6562C48.2779 50 48.874 49.7531 49.3135 49.3135C49.7531 48.874 50 48.2779 50 47.6562V16.4062V14.4531ZM45.1344 43.5547H21.768V44.3359C21.768 44.5431 21.6857 44.7419 21.5391 44.8884C21.3926 45.0349 21.1939 45.1172 20.9867 45.1172C20.7795 45.1172 20.5808 45.0349 20.4343 44.8884C20.2878 44.7419 20.2055 44.5431 20.2055 44.3359V43.5547H16.975C16.7678 43.5547 16.5691 43.4724 16.4226 43.3259C16.2761 43.1794 16.1938 42.9806 16.1938 42.7734C16.1938 42.5662 16.2761 42.3675 16.4226 42.221C16.5691 42.0745 16.7678 41.9922 16.975 41.9922H20.2055V41.2109C20.2055 41.0037 20.2878 40.805 20.4343 40.6585C20.5808 40.512 20.7795 40.4297 20.9867 40.4297C21.1939 40.4297 21.3926 40.512 21.5391 40.6585C21.6857 40.805 21.768 41.0037 21.768 41.2109V41.9922H45.1344C45.3416 41.9922 45.5403 42.0745 45.6868 42.221C45.8333 42.3675 45.9156 42.5662 45.9156 42.7734C45.9156 42.9806 45.8333 43.1794 45.6868 43.3259C45.5403 43.4724 45.3416 43.5547 45.1344 43.5547ZM45.1344 33.5945H31.8359V34.3758C31.8359 34.583 31.7536 34.7817 31.6071 34.9282C31.4606 35.0747 31.2619 35.157 31.0547 35.157C30.8475 35.157 30.6488 35.0747 30.5023 34.9282C30.3557 34.7817 30.2734 34.583 30.2734 34.3758V33.5938H16.975C16.7678 33.5938 16.5691 33.5114 16.4226 33.3649C16.2761 33.2184 16.1938 33.0197 16.1938 32.8125C16.1938 32.6053 16.2761 32.4066 16.4226 32.2601C16.5691 32.1136 16.7678 32.0312 16.975 32.0312H30.2734V31.25C30.2734 31.0428 30.3557 30.8441 30.5023 30.6976C30.6488 30.5511 30.8475 30.4688 31.0547 30.4688C31.2619 30.4688 31.4606 30.5511 31.6071 30.6976C31.7536 30.8441 31.8359 31.0428 31.8359 31.25V32.0312H45.1344C45.3416 32.0312 45.5403 32.1136 45.6868 32.2601C45.8333 32.4066 45.9156 32.6053 45.9156 32.8125C45.9156 33.0197 45.8333 33.2184 45.6868 33.3649C45.5403 33.5114 45.3416 33.5945 45.1344 33.5945ZM45.1344 23.6328H41.9039V24.4141C41.9039 24.6213 41.8216 24.82 41.6751 24.9665C41.5286 25.113 41.3299 25.1953 41.1227 25.1953C40.9155 25.1953 40.7167 25.113 40.5702 24.9665C40.4237 24.82 40.3414 24.6213 40.3414 24.4141V23.6328H16.975C16.7678 23.6328 16.5691 23.5505 16.4226 23.404C16.2761 23.2575 16.1938 23.0588 16.1938 22.8516C16.1938 22.6444 16.2761 22.4456 16.4226 22.2991C16.5691 22.1526 16.7678 22.0703 16.975 22.0703H40.3414V21.2891C40.3414 21.0819 40.4237 20.8831 40.5702 20.7366C40.7167 20.5901 40.9155 20.5078 41.1227 20.5078C41.3299 20.5078 41.5286 20.5901 41.6751 20.7366C41.8216 20.8831 41.9039 21.0819 41.9039 21.2891V22.0703H45.1344C45.3416 22.0703 45.5403 22.1526 45.6868 22.2991C45.8333 22.4456 45.9156 22.6444 45.9156 22.8516C45.9156 23.0588 45.8333 23.2575 45.6868 23.404C45.5403 23.5505 45.3416 23.6328 45.1344 23.6328ZM48.4375 15.625H13.6719V14.4531C13.6719 14.2459 13.7542 14.0472 13.9007 13.9007C14.0472 13.7542 14.2459 13.6719 14.4531 13.6719H47.6562C47.8634 13.6719 48.0622 13.7542 48.2087 13.9007C48.3552 14.0472 48.4375 14.2459 48.4375 14.4531V15.625Z" fill="#EAE0F4"/>
<path d="M35.5469 0H2.34375C1.72215 0 1.12601 0.24693 0.686468 0.686468C0.24693 1.12601 0 1.72215 0 2.34375L0 35.5469C0 36.1685 0.24693 36.7646 0.686468 37.2042C1.12601 37.6437 1.72215 37.8906 2.34375 37.8906H35.5469C36.1685 37.8906 36.7646 37.6437 37.2042 37.2042C37.6437 36.7646 37.8906 36.1685 37.8906 35.5469V2.34375C37.8906 1.72215 37.6437 1.12601 37.2042 0.686468C36.7646 0.24693 36.1685 0 35.5469 0ZM36.3281 35.5469C36.3281 35.7541 36.2458 35.9528 36.0993 36.0993C35.9528 36.2458 35.7541 36.3281 35.5469 36.3281H2.34375C2.13655 36.3281 1.93784 36.2458 1.79132 36.0993C1.64481 35.9528 1.5625 35.7541 1.5625 35.5469V9.375H36.3281V35.5469ZM36.3281 7.8125H1.5625V2.34375C1.5625 2.13655 1.64481 1.93784 1.79132 1.79132C1.93784 1.64481 2.13655 1.5625 2.34375 1.5625H35.5469C35.7541 1.5625 35.9528 1.64481 36.0993 1.79132C36.2458 1.93784 36.3281 2.13655 36.3281 2.34375V7.8125Z" fill="#151A6A"/>
<path d="M12.8906 30.0781H25C25.2072 30.0781 25.4059 29.9958 25.5524 29.8493C25.6989 29.7028 25.7812 29.5041 25.7812 29.2969V16.4062C25.7812 16.199 25.6989 16.0003 25.5524 15.8538C25.4059 15.7073 25.2072 15.625 25 15.625H12.8906C12.6834 15.625 12.4847 15.7073 12.3382 15.8538C12.1917 16.0003 12.1094 16.199 12.1094 16.4062V29.2969C12.1094 29.5041 12.1917 29.7028 12.3382 29.8493C12.4847 29.9958 12.6834 30.0781 12.8906 30.0781ZM13.6719 17.1875H24.2188V28.5156H13.6719V17.1875Z" fill="#151A6A"/>
<path d="M20.9152 24.8271H16.9746C16.7674 24.8271 16.5687 24.9095 16.4222 25.056C16.2757 25.2025 16.1934 25.4012 16.1934 25.6084C16.1934 25.8156 16.2757 26.0143 16.4222 26.1608C16.5687 26.3073 16.7674 26.3896 16.9746 26.3896H20.9152C21.1224 26.3896 21.3211 26.3073 21.4677 26.1608C21.6142 26.0143 21.6965 25.8156 21.6965 25.6084C21.6965 25.4012 21.6142 25.2025 21.4677 25.056C21.3211 24.9095 21.1224 24.8271 20.9152 24.8271Z" fill="#151A6A"/>
<path d="M20.9152 19.3135H16.9746C16.7674 19.3135 16.5687 19.3958 16.4222 19.5423C16.2757 19.6888 16.1934 19.8875 16.1934 20.0947C16.1934 20.3019 16.2757 20.5006 16.4222 20.6472C16.5687 20.7937 16.7674 20.876 16.9746 20.876H20.9152C21.1224 20.876 21.3211 20.7937 21.4677 20.6472C21.6142 20.5006 21.6965 20.3019 21.6965 20.0947C21.6965 19.8875 21.6142 19.6888 21.4677 19.5423C21.3211 19.3958 21.1224 19.3135 20.9152 19.3135Z" fill="#151A6A"/>
<path d="M6.25 3.90625H4.6875C4.4803 3.90625 4.28159 3.98856 4.13507 4.13507C3.98856 4.28159 3.90625 4.4803 3.90625 4.6875C3.90625 4.8947 3.98856 5.09341 4.13507 5.23993C4.28159 5.38644 4.4803 5.46875 4.6875 5.46875H6.25C6.4572 5.46875 6.65591 5.38644 6.80243 5.23993C6.94894 5.09341 7.03125 4.8947 7.03125 4.6875C7.03125 4.4803 6.94894 4.28159 6.80243 4.13507C6.65591 3.98856 6.4572 3.90625 6.25 3.90625Z" fill="#151A6A"/>
<path d="M10.9375 3.90625H9.375C9.1678 3.90625 8.96909 3.98856 8.82257 4.13507C8.67606 4.28159 8.59375 4.4803 8.59375 4.6875C8.59375 4.8947 8.67606 5.09341 8.82257 5.23993C8.96909 5.38644 9.1678 5.46875 9.375 5.46875H10.9375C11.1447 5.46875 11.3434 5.38644 11.4899 5.23993C11.6364 5.09341 11.7188 4.8947 11.7188 4.6875C11.7188 4.4803 11.6364 4.28159 11.4899 4.13507C11.3434 3.98856 11.1447 3.90625 10.9375 3.90625Z" fill="#151A6A"/>
<path d="M15.625 3.90625H14.0625C13.8553 3.90625 13.6566 3.98856 13.5101 4.13507C13.3636 4.28159 13.2812 4.4803 13.2812 4.6875C13.2812 4.8947 13.3636 5.09341 13.5101 5.23993C13.6566 5.38644 13.8553 5.46875 14.0625 5.46875H15.625C15.8322 5.46875 16.0309 5.38644 16.1774 5.23993C16.3239 5.09341 16.4062 4.8947 16.4062 4.6875C16.4062 4.4803 16.3239 4.28159 16.1774 4.13507C16.0309 3.98856 15.8322 3.90625 15.625 3.90625Z" fill="#151A6A"/>
<path d="M29.3186 26.1613C29.4651 26.3078 29.6638 26.39 29.8709 26.39C30.0781 26.39 30.2768 26.3078 30.4233 26.1613L33.1811 23.4043C33.3275 23.2578 33.4098 23.0591 33.4098 22.8519C33.4098 22.6448 33.3275 22.4461 33.1811 22.2996L30.4233 19.5425C30.2759 19.4002 30.0786 19.3215 29.8737 19.3233C29.6689 19.3251 29.4729 19.4072 29.3281 19.5521C29.1832 19.6969 29.1011 19.8929 29.0993 20.0977C29.0975 20.3025 29.1763 20.4999 29.3186 20.6472L31.5241 22.8519L29.3186 25.0566C29.1721 25.2031 29.0898 25.4018 29.0898 25.609C29.0898 25.8161 29.1721 26.0148 29.3186 26.1613Z" fill="#151A6A"/>
<path d="M7.46702 26.161C7.61437 26.3033 7.81171 26.382 8.01655 26.3802C8.22139 26.3785 8.41734 26.2963 8.56219 26.1515C8.70704 26.0066 8.7892 25.8107 8.79098 25.6058C8.79276 25.401 8.71402 25.2036 8.57171 25.0563L6.36624 22.8516L8.57171 20.6469C8.64633 20.5748 8.70584 20.4886 8.74679 20.3933C8.78773 20.298 8.80928 20.1955 8.81018 20.0917C8.81109 19.988 8.79132 19.8851 8.75204 19.7891C8.71276 19.6931 8.65475 19.6059 8.58139 19.5325C8.50804 19.4592 8.42081 19.4012 8.3248 19.3619C8.22878 19.3226 8.12591 19.3028 8.02218 19.3037C7.91844 19.3046 7.81593 19.3262 7.72061 19.3671C7.62529 19.4081 7.53909 19.4676 7.46702 19.5422L4.70921 22.2992C4.56275 22.4458 4.48047 22.6444 4.48047 22.8516C4.48047 23.0588 4.56275 23.2574 4.70921 23.4039L7.46702 26.161Z" fill="#151A6A"/>
</g>
<defs>
<clipPath id="clip0_2537_533">
<rect width="50" height="50" fill="white"/>
</clipPath>
</defs>
</svg>
