<svg width="51" height="50" viewBox="0 0 51 50" fill="none" xmlns="http://www.w3.org/2000/svg">
<g clip-path="url(#clip0_2537_663)">
<path d="M50.5 14.4531C50.5 13.8315 50.2531 13.2354 49.8135 12.7958C49.374 12.3563 48.7779 12.1094 48.1562 12.1094H14.9531C14.3315 12.1094 13.7354 12.3563 13.2958 12.7958C12.8563 13.2354 12.6094 13.8315 12.6094 14.4531V16.4062V47.6562C12.6094 48.2779 12.8563 48.874 13.2958 49.3135C13.7354 49.7531 14.3315 50 14.9531 50H48.1562C48.7779 50 49.374 49.7531 49.8135 49.3135C50.2531 48.874 50.5 48.2779 50.5 47.6562V16.4062V14.4531ZM45.6344 43.5547H22.268V44.3359C22.268 44.5431 22.1857 44.7419 22.0391 44.8884C21.8926 45.0349 21.6939 45.1172 21.4867 45.1172C21.2795 45.1172 21.0808 45.0349 20.9343 44.8884C20.7878 44.7419 20.7055 44.5431 20.7055 44.3359V43.5547H17.475C17.2678 43.5547 17.0691 43.4724 16.9226 43.3259C16.7761 43.1794 16.6938 42.9806 16.6938 42.7734C16.6938 42.5662 16.7761 42.3675 16.9226 42.221C17.0691 42.0745 17.2678 41.9922 17.475 41.9922H20.7055V41.2109C20.7055 41.0037 20.7878 40.805 20.9343 40.6585C21.0808 40.512 21.2795 40.4297 21.4867 40.4297C21.6939 40.4297 21.8926 40.512 22.0391 40.6585C22.1857 40.805 22.268 41.0037 22.268 41.2109V41.9922H45.6344C45.8416 41.9922 46.0403 42.0745 46.1868 42.221C46.3333 42.3675 46.4156 42.5662 46.4156 42.7734C46.4156 42.9806 46.3333 43.1794 46.1868 43.3259C46.0403 43.4724 45.8416 43.5547 45.6344 43.5547ZM45.6344 33.5945H32.3359V34.3758C32.3359 34.583 32.2536 34.7817 32.1071 34.9282C31.9606 35.0747 31.7619 35.157 31.5547 35.157C31.3475 35.157 31.1488 35.0747 31.0023 34.9282C30.8557 34.7817 30.7734 34.583 30.7734 34.3758V33.5938H17.475C17.2678 33.5938 17.0691 33.5114 16.9226 33.3649C16.7761 33.2184 16.6938 33.0197 16.6938 32.8125C16.6938 32.6053 16.7761 32.4066 16.9226 32.2601C17.0691 32.1136 17.2678 32.0312 17.475 32.0312H30.7734V31.25C30.7734 31.0428 30.8557 30.8441 31.0023 30.6976C31.1488 30.5511 31.3475 30.4688 31.5547 30.4688C31.7619 30.4688 31.9606 30.5511 32.1071 30.6976C32.2536 30.8441 32.3359 31.0428 32.3359 31.25V32.0312H45.6344C45.8416 32.0312 46.0403 32.1136 46.1868 32.2601C46.3333 32.4066 46.4156 32.6053 46.4156 32.8125C46.4156 33.0197 46.3333 33.2184 46.1868 33.3649C46.0403 33.5114 45.8416 33.5945 45.6344 33.5945ZM45.6344 23.6328H42.4039V24.4141C42.4039 24.6213 42.3216 24.82 42.1751 24.9665C42.0286 25.113 41.8299 25.1953 41.6227 25.1953C41.4155 25.1953 41.2167 25.113 41.0702 24.9665C40.9237 24.82 40.8414 24.6213 40.8414 24.4141V23.6328H17.475C17.2678 23.6328 17.0691 23.5505 16.9226 23.404C16.7761 23.2575 16.6938 23.0588 16.6938 22.8516C16.6938 22.6444 16.7761 22.4456 16.9226 22.2991C17.0691 22.1526 17.2678 22.0703 17.475 22.0703H40.8414V21.2891C40.8414 21.0819 40.9237 20.8831 41.0702 20.7366C41.2167 20.5901 41.4155 20.5078 41.6227 20.5078C41.8299 20.5078 42.0286 20.5901 42.1751 20.7366C42.3216 20.8831 42.4039 21.0819 42.4039 21.2891V22.0703H45.6344C45.8416 22.0703 46.0403 22.1526 46.1868 22.2991C46.3333 22.4456 46.4156 22.6444 46.4156 22.8516C46.4156 23.0588 46.3333 23.2575 46.1868 23.404C46.0403 23.5505 45.8416 23.6328 45.6344 23.6328ZM48.9375 15.625H14.1719V14.4531C14.1719 14.2459 14.2542 14.0472 14.4007 13.9007C14.5472 13.7542 14.7459 13.6719 14.9531 13.6719H48.1562C48.3634 13.6719 48.5622 13.7542 48.7087 13.9007C48.8552 14.0472 48.9375 14.2459 48.9375 14.4531V15.625Z" fill="#E9F5F4"/>
<path d="M36.0469 0H2.84375C2.22215 0 1.62601 0.24693 1.18647 0.686468C0.74693 1.12601 0.5 1.72215 0.5 2.34375L0.5 35.5469C0.5 36.1685 0.74693 36.7646 1.18647 37.2042C1.62601 37.6437 2.22215 37.8906 2.84375 37.8906H36.0469C36.6685 37.8906 37.2646 37.6437 37.7042 37.2042C38.1437 36.7646 38.3906 36.1685 38.3906 35.5469V2.34375C38.3906 1.72215 38.1437 1.12601 37.7042 0.686468C37.2646 0.24693 36.6685 0 36.0469 0ZM36.8281 35.5469C36.8281 35.7541 36.7458 35.9528 36.5993 36.0993C36.4528 36.2458 36.2541 36.3281 36.0469 36.3281H2.84375C2.63655 36.3281 2.43784 36.2458 2.29132 36.0993C2.14481 35.9528 2.0625 35.7541 2.0625 35.5469V9.375H36.8281V35.5469ZM36.8281 7.8125H2.0625V2.34375C2.0625 2.13655 2.14481 1.93784 2.29132 1.79132C2.43784 1.64481 2.63655 1.5625 2.84375 1.5625H36.0469C36.2541 1.5625 36.4528 1.64481 36.5993 1.79132C36.7458 1.93784 36.8281 2.13655 36.8281 2.34375V7.8125Z" fill="#051B43"/>
<path d="M13.3906 30.0781H25.5C25.7072 30.0781 25.9059 29.9958 26.0524 29.8493C26.1989 29.7028 26.2812 29.5041 26.2812 29.2969V16.4062C26.2812 16.199 26.1989 16.0003 26.0524 15.8538C25.9059 15.7073 25.7072 15.625 25.5 15.625H13.3906C13.1834 15.625 12.9847 15.7073 12.8382 15.8538C12.6917 16.0003 12.6094 16.199 12.6094 16.4062V29.2969C12.6094 29.5041 12.6917 29.7028 12.8382 29.8493C12.9847 29.9958 13.1834 30.0781 13.3906 30.0781ZM14.1719 17.1875H24.7188V28.5156H14.1719V17.1875Z" fill="#051B43"/>
<path d="M21.4152 24.8271H17.4746C17.2674 24.8271 17.0687 24.9095 16.9222 25.056C16.7757 25.2025 16.6934 25.4012 16.6934 25.6084C16.6934 25.8156 16.7757 26.0143 16.9222 26.1608C17.0687 26.3073 17.2674 26.3896 17.4746 26.3896H21.4152C21.6224 26.3896 21.8211 26.3073 21.9677 26.1608C22.1142 26.0143 22.1965 25.8156 22.1965 25.6084C22.1965 25.4012 22.1142 25.2025 21.9677 25.056C21.8211 24.9095 21.6224 24.8271 21.4152 24.8271Z" fill="#051B43"/>
<path d="M21.4152 19.3135H17.4746C17.2674 19.3135 17.0687 19.3958 16.9222 19.5423C16.7757 19.6888 16.6934 19.8875 16.6934 20.0947C16.6934 20.3019 16.7757 20.5006 16.9222 20.6472C17.0687 20.7937 17.2674 20.876 17.4746 20.876H21.4152C21.6224 20.876 21.8211 20.7937 21.9677 20.6472C22.1142 20.5006 22.1965 20.3019 22.1965 20.0947C22.1965 19.8875 22.1142 19.6888 21.9677 19.5423C21.8211 19.3958 21.6224 19.3135 21.4152 19.3135Z" fill="#051B43"/>
<path d="M6.75 3.90625H5.1875C4.9803 3.90625 4.78159 3.98856 4.63507 4.13507C4.48856 4.28159 4.40625 4.4803 4.40625 4.6875C4.40625 4.8947 4.48856 5.09341 4.63507 5.23993C4.78159 5.38644 4.9803 5.46875 5.1875 5.46875H6.75C6.9572 5.46875 7.15591 5.38644 7.30243 5.23993C7.44894 5.09341 7.53125 4.8947 7.53125 4.6875C7.53125 4.4803 7.44894 4.28159 7.30243 4.13507C7.15591 3.98856 6.9572 3.90625 6.75 3.90625Z" fill="#051B43"/>
<path d="M11.4375 3.90625H9.875C9.6678 3.90625 9.46909 3.98856 9.32257 4.13507C9.17606 4.28159 9.09375 4.4803 9.09375 4.6875C9.09375 4.8947 9.17606 5.09341 9.32257 5.23993C9.46909 5.38644 9.6678 5.46875 9.875 5.46875H11.4375C11.6447 5.46875 11.8434 5.38644 11.9899 5.23993C12.1364 5.09341 12.2188 4.8947 12.2188 4.6875C12.2188 4.4803 12.1364 4.28159 11.9899 4.13507C11.8434 3.98856 11.6447 3.90625 11.4375 3.90625Z" fill="#051B43"/>
<path d="M16.125 3.90625H14.5625C14.3553 3.90625 14.1566 3.98856 14.0101 4.13507C13.8636 4.28159 13.7812 4.4803 13.7812 4.6875C13.7812 4.8947 13.8636 5.09341 14.0101 5.23993C14.1566 5.38644 14.3553 5.46875 14.5625 5.46875H16.125C16.3322 5.46875 16.5309 5.38644 16.6774 5.23993C16.8239 5.09341 16.9062 4.8947 16.9062 4.6875C16.9062 4.4803 16.8239 4.28159 16.6774 4.13507C16.5309 3.98856 16.3322 3.90625 16.125 3.90625Z" fill="#051B43"/>
<path d="M29.8186 26.1613C29.9651 26.3078 30.1638 26.39 30.3709 26.39C30.5781 26.39 30.7768 26.3078 30.9233 26.1613L33.6811 23.4043C33.8275 23.2578 33.9098 23.0591 33.9098 22.8519C33.9098 22.6448 33.8275 22.4461 33.6811 22.2996L30.9233 19.5425C30.7759 19.4002 30.5786 19.3215 30.3737 19.3233C30.1689 19.3251 29.9729 19.4072 29.8281 19.5521C29.6832 19.6969 29.6011 19.8929 29.5993 20.0977C29.5975 20.3025 29.6763 20.4999 29.8186 20.6472L32.0241 22.8519L29.8186 25.0566C29.6721 25.2031 29.5898 25.4018 29.5898 25.609C29.5898 25.8161 29.6721 26.0148 29.8186 26.1613Z" fill="#051B43"/>
<path d="M7.96702 26.161C8.11437 26.3033 8.31171 26.382 8.51655 26.3802C8.72139 26.3785 8.91734 26.2963 9.06219 26.1515C9.20704 26.0066 9.2892 25.8107 9.29098 25.6058C9.29276 25.401 9.21402 25.2036 9.07171 25.0563L6.86624 22.8516L9.07171 20.6469C9.14633 20.5748 9.20584 20.4886 9.24679 20.3933C9.28773 20.298 9.30928 20.1955 9.31018 20.0917C9.31109 19.988 9.29132 19.8851 9.25204 19.7891C9.21276 19.6931 9.15475 19.6059 9.08139 19.5325C9.00804 19.4592 8.92081 19.4012 8.8248 19.3619C8.72878 19.3226 8.62591 19.3028 8.52218 19.3037C8.41844 19.3046 8.31593 19.3262 8.22061 19.3671C8.12529 19.4081 8.03909 19.4676 7.96702 19.5422L5.20921 22.2992C5.06275 22.4458 4.98047 22.6444 4.98047 22.8516C4.98047 23.0588 5.06275 23.2574 5.20921 23.4039L7.96702 26.161Z" fill="#051B43"/>
</g>
<defs>
<clipPath id="clip0_2537_663">
<rect width="50" height="50" fill="white" transform="translate(0.5)"/>
</clipPath>
</defs>
</svg>
