<svg width="30" height="30" viewBox="0 0 30 30" fill="none" xmlns="http://www.w3.org/2000/svg">
<path fill-rule="evenodd" clip-rule="evenodd" d="M1.39543 1.39592C1.6884 1.10332 2.08554 0.938965 2.4996 0.938965C2.91367 0.938965 3.3108 1.10332 3.60377 1.39592L28.6038 26.3959C28.7573 26.539 28.8804 26.7115 28.9658 26.9031C29.0512 27.0948 29.0971 27.3017 29.1008 27.5115C29.1045 27.7213 29.0659 27.9297 28.9874 28.1243C28.9088 28.3188 28.7918 28.4955 28.6434 28.6439C28.4951 28.7923 28.3183 28.9093 28.1238 28.9878C27.9292 29.0664 27.7208 29.105 27.511 29.1013C27.3012 29.0976 27.0943 29.0517 26.9026 28.9663C26.711 28.8809 26.5385 28.7578 26.3954 28.6043L1.39543 3.60426C1.10283 3.31129 0.938477 2.91415 0.938477 2.50009C0.938477 2.08603 1.10283 1.68889 1.39543 1.39592Z" fill="#303D8F"/>
<path fill-rule="evenodd" clip-rule="evenodd" d="M28.6043 1.39592C28.8969 1.68889 29.0612 2.08603 29.0612 2.50009C29.0612 2.91415 28.8969 3.31129 28.6043 3.60426L3.60425 28.6043C3.30806 28.8803 2.91629 29.0305 2.5115 29.0234C2.1067 29.0162 1.72049 28.8522 1.43421 28.566C1.14793 28.2797 0.983948 27.8935 0.976806 27.4887C0.969664 27.0839 1.11992 26.6921 1.39592 26.3959L26.3959 1.39592C26.6889 1.10332 27.086 0.938965 27.5001 0.938965C27.9142 0.938965 28.3113 1.10332 28.6043 1.39592Z" fill="#303D8F"/>
</svg>
