<svg width="27" height="20" viewBox="0 0 27 20" fill="none" xmlns="http://www.w3.org/2000/svg">
<path fill-rule="evenodd" clip-rule="evenodd" d="M1.36542 1.072C1.94874 0.421 2.79123 0 3.7373 0H23.2627C24.2088 0 25.0513 0.421 25.6346 1.072C26.1751 1.6752 26.5 2.4814 26.5 3.3571V16.6429C26.5 18.4471 25.0991 20 23.2627 20H3.7373C1.90085 20 0.5 18.4471 0.5 16.6429V3.3571C0.5 2.4814 0.82488 1.6752 1.36542 1.072ZM4.0244 2L13.4039 9.5762L22.9524 2H4.0244ZM24.4997 3.3254L14.0199 11.6405L12.7699 11.6351L2.5001 3.3397C2.50003 3.3455 2.5 3.3513 2.5 3.3571V16.6429C2.5 17.4422 3.10249 18 3.7373 18H23.2627C23.8975 18 24.5 17.4422 24.5 16.6429V3.3571C24.5 3.3465 24.4999 3.336 24.4997 3.3254Z" fill="#051B43"/>
</svg>
