<svg width="50" height="50" viewBox="0 0 50 50" fill="none" xmlns="http://www.w3.org/2000/svg">
<g clip-path="url(#clip0_2417_453)">
<path d="M46.875 19.5312H19.5312C18.9096 19.5312 18.3135 19.7782 17.874 20.2177C17.4344 20.6573 17.1875 21.2534 17.1875 21.875V46.875C17.1875 47.4966 17.4344 48.0927 17.874 48.5323C18.3135 48.9718 18.9096 49.2188 19.5312 49.2188H46.875C47.4966 49.2188 48.0927 48.9718 48.5323 48.5323C48.9718 48.0927 49.2188 47.4966 49.2188 46.875V21.875C49.2188 21.2534 48.9718 20.6573 48.5323 20.2177C48.0927 19.7782 47.4966 19.5312 46.875 19.5312ZM25 37.6266V39.0625C25 39.2697 25.0823 39.4684 25.2288 39.6149C25.3753 39.7614 25.574 39.8438 25.7812 39.8438C25.9885 39.8438 26.1872 39.9261 26.3337 40.0726C26.4802 40.2191 26.5625 40.4178 26.5625 40.625C26.5625 40.8322 26.4802 41.0309 26.3337 41.1774C26.1872 41.3239 25.9885 41.4062 25.7812 41.4062C25.1596 41.4062 24.5635 41.1593 24.124 40.7198C23.6844 40.2802 23.4375 39.6841 23.4375 39.0625V37.6266C23.4379 37.0711 23.2634 36.5296 22.9386 36.079C22.6138 35.6284 22.1552 35.2916 21.6281 35.1164C21.471 35.0641 21.3345 34.9632 21.2384 34.8283C21.1423 34.6933 21.0917 34.5313 21.0937 34.3657C21.0956 34.2001 21.1502 34.0394 21.2495 33.9068C21.3488 33.7742 21.4877 33.6766 21.6461 33.6281C22.1658 33.4711 22.6209 33.1505 22.9437 32.714C23.2665 32.2774 23.4397 31.7484 23.4375 31.2055V29.6875C23.4375 29.0659 23.6844 28.4698 24.124 28.0302C24.5635 27.5907 25.1596 27.3438 25.7812 27.3438C25.9885 27.3438 26.1872 27.4261 26.3337 27.5726C26.4802 27.7191 26.5625 27.9178 26.5625 28.125C26.5625 28.3322 26.4802 28.5309 26.3337 28.6774C26.1872 28.8239 25.9885 28.9062 25.7812 28.9062C25.574 28.9062 25.3753 28.9886 25.2288 29.1351C25.0823 29.2816 25 29.4803 25 29.6875V31.2055C25.0023 31.8161 24.8673 32.4194 24.6051 32.9708C24.3429 33.5223 23.9602 34.0077 23.4852 34.3914C23.9597 34.7864 24.3414 35.281 24.6032 35.8401C24.865 36.3992 25.0005 37.0092 25 37.6266ZM29.6875 41.4062H28.9062C28.699 41.4062 28.5003 41.3239 28.3538 41.1774C28.2073 41.0309 28.125 40.8322 28.125 40.625C28.125 40.4178 28.2073 40.2191 28.3538 40.0726C28.5003 39.9261 28.699 39.8438 28.9062 39.8438H29.6875C29.8947 39.8438 30.0934 39.9261 30.2399 40.0726C30.3864 40.2191 30.4688 40.4178 30.4688 40.625C30.4688 40.8322 30.3864 41.0309 30.2399 41.1774C30.0934 41.3239 29.8947 41.4062 29.6875 41.4062ZM33.5938 41.4062H32.8125C32.6053 41.4062 32.4066 41.3239 32.2601 41.1774C32.1136 41.0309 32.0312 40.8322 32.0312 40.625C32.0312 40.4178 32.1136 40.2191 32.2601 40.0726C32.4066 39.9261 32.6053 39.8438 32.8125 39.8438H33.5938C33.801 39.8438 33.9997 39.9261 34.1462 40.0726C34.2927 40.2191 34.375 40.4178 34.375 40.625C34.375 40.8322 34.2927 41.0309 34.1462 41.1774C33.9997 41.3239 33.801 41.4062 33.5938 41.4062ZM37.5 41.4062H36.7188C36.5115 41.4062 36.3128 41.3239 36.1663 41.1774C36.0198 41.0309 35.9375 40.8322 35.9375 40.625C35.9375 40.4178 36.0198 40.2191 36.1663 40.0726C36.3128 39.9261 36.5115 39.8438 36.7188 39.8438H37.5C37.7072 39.8438 37.9059 39.9261 38.0524 40.0726C38.1989 40.2191 38.2812 40.4178 38.2812 40.625C38.2812 40.8322 38.1989 41.0309 38.0524 41.1774C37.9059 41.3239 37.7072 41.4062 37.5 41.4062ZM44.7781 35.1164C44.251 35.2916 43.7925 35.6284 43.4677 36.079C43.1429 36.5296 42.9683 37.0711 42.9688 37.6266V39.0625C42.9688 39.6841 42.7218 40.2802 42.2823 40.7198C41.8427 41.1593 41.2466 41.4062 40.625 41.4062C40.4178 41.4062 40.2191 41.3239 40.0726 41.1774C39.9261 41.0309 39.8438 40.8322 39.8438 40.625C39.8438 40.4178 39.9261 40.2191 40.0726 40.0726C40.2191 39.9261 40.4178 39.8438 40.625 39.8438C40.8322 39.8438 41.0309 39.7614 41.1774 39.6149C41.3239 39.4684 41.4062 39.2697 41.4062 39.0625V37.6266C41.4057 37.0092 41.5412 36.3992 41.803 35.8401C42.0648 35.281 42.4466 34.7864 42.9211 34.3914C42.4461 34.0077 42.0633 33.5223 41.8011 32.9708C41.5389 32.4194 41.404 31.8161 41.4062 31.2055V29.6875C41.4062 29.4803 41.3239 29.2816 41.1774 29.1351C41.0309 28.9886 40.8322 28.9062 40.625 28.9062C40.4178 28.9062 40.2191 28.8239 40.0726 28.6774C39.9261 28.5309 39.8438 28.3322 39.8438 28.125C39.8438 27.9178 39.9261 27.7191 40.0726 27.5726C40.2191 27.4261 40.4178 27.3438 40.625 27.3438C41.2466 27.3438 41.8427 27.5907 42.2823 28.0302C42.7218 28.4698 42.9688 29.0659 42.9688 29.6875V31.2055C42.9668 31.7482 43.14 32.2771 43.4628 32.7135C43.7856 33.1499 44.2406 33.4704 44.7602 33.6273C44.9185 33.6758 45.0574 33.7734 45.1567 33.906C45.256 34.0386 45.3106 34.1993 45.3126 34.3649C45.3146 34.5306 45.2639 34.6925 45.1678 34.8275C45.0718 34.9624 44.9353 35.0641 44.7781 35.1164Z" fill="#CCDBFF"/>
<path d="M31.25 0.78125H3.125C2.5034 0.78125 1.90726 1.02818 1.46772 1.46772C1.02818 1.90726 0.78125 2.5034 0.78125 3.125V31.25C0.78125 31.8716 1.02818 32.4677 1.46772 32.9073C1.90726 33.3468 2.5034 33.5938 3.125 33.5938H31.25C31.8716 33.5938 32.4677 33.3468 32.9073 32.9073C33.3468 32.4677 33.5938 31.8716 33.5938 31.25V3.125C33.5938 2.5034 33.3468 1.90726 32.9073 1.46772C32.4677 1.02818 31.8716 0.78125 31.25 0.78125ZM3.125 2.34375H31.25C31.4572 2.34375 31.6559 2.42606 31.8024 2.57257C31.9489 2.71909 32.0312 2.9178 32.0312 3.125V7.03125H2.34375V3.125C2.34375 2.9178 2.42606 2.71909 2.57257 2.57257C2.71909 2.42606 2.9178 2.34375 3.125 2.34375ZM6.25 32.0312V21.0938H28.125V32.0312H6.25ZM31.25 32.0312H29.6875V20.3125C29.6875 20.1053 29.6052 19.9066 29.4587 19.7601C29.3122 19.6136 29.1135 19.5312 28.9062 19.5312H5.46875C5.26155 19.5312 5.06284 19.6136 4.91632 19.7601C4.76981 19.9066 4.6875 20.1053 4.6875 20.3125V32.0312H3.125C2.9178 32.0312 2.71909 31.9489 2.57257 31.8024C2.42606 31.6559 2.34375 31.4572 2.34375 31.25V8.59375H32.0312V31.25C32.0312 31.4572 31.9489 31.6559 31.8024 31.8024C31.6559 31.9489 31.4572 32.0312 31.25 32.0312Z" fill="#151A6A"/>
<path d="M7.8125 5.46875H26.5625C26.7697 5.46875 26.9684 5.38644 27.1149 5.23993C27.2614 5.09341 27.3438 4.8947 27.3438 4.6875C27.3438 4.4803 27.2614 4.28159 27.1149 4.13507C26.9684 3.98856 26.7697 3.90625 26.5625 3.90625H7.8125C7.6053 3.90625 7.40659 3.98856 7.26007 4.13507C7.11356 4.28159 7.03125 4.4803 7.03125 4.6875C7.03125 4.8947 7.11356 5.09341 7.26007 5.23993C7.40659 5.38644 7.6053 5.46875 7.8125 5.46875Z" fill="#151A6A"/>
<path d="M28.9062 10.9375H5.46875C5.26155 10.9375 5.06284 11.0198 4.91632 11.1663C4.76981 11.3128 4.6875 11.5115 4.6875 11.7188V16.4062C4.6875 16.6135 4.76981 16.8122 4.91632 16.9587C5.06284 17.1052 5.26155 17.1875 5.46875 17.1875H28.9062C29.1135 17.1875 29.3122 17.1052 29.4587 16.9587C29.6052 16.8122 29.6875 16.6135 29.6875 16.4062V11.7188C29.6875 11.5115 29.6052 11.3128 29.4587 11.1663C29.3122 11.0198 29.1135 10.9375 28.9062 10.9375ZM28.125 15.625H6.25V12.5H28.125V15.625Z" fill="#151A6A"/>
</g>
<defs>
<clipPath id="clip0_2417_453">
<rect width="50" height="50" fill="white"/>
</clipPath>
</defs>
</svg>
