<svg width="51" height="50" viewBox="0 0 51 50" fill="none" xmlns="http://www.w3.org/2000/svg">
<path d="M47.375 19.5312H20.0312C19.4096 19.5312 18.8135 19.7782 18.374 20.2177C17.9344 20.6573 17.6875 21.2534 17.6875 21.875V46.875C17.6875 47.4966 17.9344 48.0927 18.374 48.5323C18.8135 48.9718 19.4096 49.2188 20.0312 49.2188H47.375C47.9966 49.2188 48.5927 48.9718 49.0323 48.5323C49.4718 48.0927 49.7188 47.4966 49.7188 46.875V21.875C49.7188 21.2534 49.4718 20.6573 49.0323 20.2177C48.5927 19.7782 47.9966 19.5312 47.375 19.5312ZM25.5 37.6266V39.0625C25.5 39.2697 25.5823 39.4684 25.7288 39.6149C25.8753 39.7614 26.074 39.8438 26.2812 39.8438C26.4885 39.8438 26.6872 39.9261 26.8337 40.0726C26.9802 40.2191 27.0625 40.4178 27.0625 40.625C27.0625 40.8322 26.9802 41.0309 26.8337 41.1774C26.6872 41.3239 26.4885 41.4062 26.2812 41.4062C25.6596 41.4062 25.0635 41.1593 24.624 40.7198C24.1844 40.2802 23.9375 39.6841 23.9375 39.0625V37.6266C23.9379 37.0711 23.7634 36.5296 23.4386 36.079C23.1138 35.6284 22.6552 35.2916 22.1281 35.1164C21.971 35.0641 21.8345 34.9632 21.7384 34.8283C21.6423 34.6933 21.5917 34.5313 21.5937 34.3657C21.5956 34.2001 21.6502 34.0394 21.7495 33.9068C21.8488 33.7742 21.9877 33.6766 22.1461 33.6281C22.6658 33.4711 23.1209 33.1505 23.4437 32.714C23.7665 32.2774 23.9397 31.7484 23.9375 31.2055V29.6875C23.9375 29.0659 24.1844 28.4698 24.624 28.0302C25.0635 27.5907 25.6596 27.3438 26.2812 27.3438C26.4885 27.3438 26.6872 27.4261 26.8337 27.5726C26.9802 27.7191 27.0625 27.9178 27.0625 28.125C27.0625 28.3322 26.9802 28.5309 26.8337 28.6774C26.6872 28.8239 26.4885 28.9062 26.2812 28.9062C26.074 28.9062 25.8753 28.9886 25.7288 29.1351C25.5823 29.2816 25.5 29.4803 25.5 29.6875V31.2055C25.5023 31.8161 25.3673 32.4194 25.1051 32.9708C24.8429 33.5223 24.4602 34.0077 23.9852 34.3914C24.4597 34.7864 24.8414 35.281 25.1032 35.8401C25.365 36.3992 25.5005 37.0092 25.5 37.6266ZM30.1875 41.4062H29.4062C29.199 41.4062 29.0003 41.3239 28.8538 41.1774C28.7073 41.0309 28.625 40.8322 28.625 40.625C28.625 40.4178 28.7073 40.2191 28.8538 40.0726C29.0003 39.9261 29.199 39.8438 29.4062 39.8438H30.1875C30.3947 39.8438 30.5934 39.9261 30.7399 40.0726C30.8864 40.2191 30.9688 40.4178 30.9688 40.625C30.9688 40.8322 30.8864 41.0309 30.7399 41.1774C30.5934 41.3239 30.3947 41.4062 30.1875 41.4062ZM34.0938 41.4062H33.3125C33.1053 41.4062 32.9066 41.3239 32.7601 41.1774C32.6136 41.0309 32.5312 40.8322 32.5312 40.625C32.5312 40.4178 32.6136 40.2191 32.7601 40.0726C32.9066 39.9261 33.1053 39.8438 33.3125 39.8438H34.0938C34.301 39.8438 34.4997 39.9261 34.6462 40.0726C34.7927 40.2191 34.875 40.4178 34.875 40.625C34.875 40.8322 34.7927 41.0309 34.6462 41.1774C34.4997 41.3239 34.301 41.4062 34.0938 41.4062ZM38 41.4062H37.2188C37.0115 41.4062 36.8128 41.3239 36.6663 41.1774C36.5198 41.0309 36.4375 40.8322 36.4375 40.625C36.4375 40.4178 36.5198 40.2191 36.6663 40.0726C36.8128 39.9261 37.0115 39.8438 37.2188 39.8438H38C38.2072 39.8438 38.4059 39.9261 38.5524 40.0726C38.6989 40.2191 38.7812 40.4178 38.7812 40.625C38.7812 40.8322 38.6989 41.0309 38.5524 41.1774C38.4059 41.3239 38.2072 41.4062 38 41.4062ZM45.2781 35.1164C44.751 35.2916 44.2925 35.6284 43.9677 36.079C43.6429 36.5296 43.4683 37.0711 43.4688 37.6266V39.0625C43.4688 39.6841 43.2218 40.2802 42.7823 40.7198C42.3427 41.1593 41.7466 41.4062 41.125 41.4062C40.9178 41.4062 40.7191 41.3239 40.5726 41.1774C40.4261 41.0309 40.3438 40.8322 40.3438 40.625C40.3438 40.4178 40.4261 40.2191 40.5726 40.0726C40.7191 39.9261 40.9178 39.8438 41.125 39.8438C41.3322 39.8438 41.5309 39.7614 41.6774 39.6149C41.8239 39.4684 41.9062 39.2697 41.9062 39.0625V37.6266C41.9057 37.0092 42.0412 36.3992 42.303 35.8401C42.5648 35.281 42.9466 34.7864 43.4211 34.3914C42.9461 34.0077 42.5633 33.5223 42.3011 32.9708C42.0389 32.4194 41.904 31.8161 41.9062 31.2055V29.6875C41.9062 29.4803 41.8239 29.2816 41.6774 29.1351C41.5309 28.9886 41.3322 28.9062 41.125 28.9062C40.9178 28.9062 40.7191 28.8239 40.5726 28.6774C40.4261 28.5309 40.3438 28.3322 40.3438 28.125C40.3438 27.9178 40.4261 27.7191 40.5726 27.5726C40.7191 27.4261 40.9178 27.3438 41.125 27.3438C41.7466 27.3438 42.3427 27.5907 42.7823 28.0302C43.2218 28.4698 43.4688 29.0659 43.4688 29.6875V31.2055C43.4668 31.7482 43.64 32.2771 43.9628 32.7135C44.2856 33.1499 44.7406 33.4704 45.2602 33.6273C45.4185 33.6758 45.5574 33.7734 45.6567 33.906C45.756 34.0386 45.8106 34.1993 45.8126 34.3649C45.8146 34.5306 45.7639 34.6925 45.6678 34.8275C45.5718 34.9624 45.4353 35.0641 45.2781 35.1164Z" fill="#E9F5F4"/>
<path d="M31.75 0.78125H3.625C3.0034 0.78125 2.40726 1.02818 1.96772 1.46772C1.52818 1.90726 1.28125 2.5034 1.28125 3.125V31.25C1.28125 31.8716 1.52818 32.4677 1.96772 32.9073C2.40726 33.3468 3.0034 33.5938 3.625 33.5938H31.75C32.3716 33.5938 32.9677 33.3468 33.4073 32.9073C33.8468 32.4677 34.0938 31.8716 34.0938 31.25V3.125C34.0938 2.5034 33.8468 1.90726 33.4073 1.46772C32.9677 1.02818 32.3716 0.78125 31.75 0.78125ZM3.625 2.34375H31.75C31.9572 2.34375 32.1559 2.42606 32.3024 2.57257C32.4489 2.71909 32.5312 2.9178 32.5312 3.125V7.03125H2.84375V3.125C2.84375 2.9178 2.92606 2.71909 3.07257 2.57257C3.21909 2.42606 3.4178 2.34375 3.625 2.34375ZM6.75 32.0312V21.0938H28.625V32.0312H6.75ZM31.75 32.0312H30.1875V20.3125C30.1875 20.1053 30.1052 19.9066 29.9587 19.7601C29.8122 19.6136 29.6135 19.5312 29.4062 19.5312H5.96875C5.76155 19.5312 5.56284 19.6136 5.41632 19.7601C5.26981 19.9066 5.1875 20.1053 5.1875 20.3125V32.0312H3.625C3.4178 32.0312 3.21909 31.9489 3.07257 31.8024C2.92606 31.6559 2.84375 31.4572 2.84375 31.25V8.59375H32.5312V31.25C32.5312 31.4572 32.4489 31.6559 32.3024 31.8024C32.1559 31.9489 31.9572 32.0312 31.75 32.0312Z" fill="#051B43"/>
<path d="M8.3125 5.46875H27.0625C27.2697 5.46875 27.4684 5.38644 27.6149 5.23993C27.7614 5.09341 27.8438 4.8947 27.8438 4.6875C27.8438 4.4803 27.7614 4.28159 27.6149 4.13507C27.4684 3.98856 27.2697 3.90625 27.0625 3.90625H8.3125C8.1053 3.90625 7.90659 3.98856 7.76007 4.13507C7.61356 4.28159 7.53125 4.4803 7.53125 4.6875C7.53125 4.8947 7.61356 5.09341 7.76007 5.23993C7.90659 5.38644 8.1053 5.46875 8.3125 5.46875Z" fill="#051B43"/>
<path d="M29.4062 10.9375H5.96875C5.76155 10.9375 5.56284 11.0198 5.41632 11.1663C5.26981 11.3128 5.1875 11.5115 5.1875 11.7188V16.4062C5.1875 16.6135 5.26981 16.8122 5.41632 16.9587C5.56284 17.1052 5.76155 17.1875 5.96875 17.1875H29.4062C29.6135 17.1875 29.8122 17.1052 29.9587 16.9587C30.1052 16.8122 30.1875 16.6135 30.1875 16.4062V11.7188C30.1875 11.5115 30.1052 11.3128 29.9587 11.1663C29.8122 11.0198 29.6135 10.9375 29.4062 10.9375ZM28.625 15.625H6.75V12.5H28.625V15.625Z" fill="#051B43"/>
</svg>
