<svg width="50" height="50" viewBox="0 0 50 50" fill="none" xmlns="http://www.w3.org/2000/svg">
<path d="M44.149 24.6945C44.9501 24.5154 45.7886 24.6227 46.5187 24.9978C46.6378 25.0586 46.7706 25.0879 46.9043 25.0828C47.0379 25.0776 47.168 25.0383 47.2822 24.9685C47.3963 24.8988 47.4906 24.8009 47.5561 24.6843C47.6216 24.5676 47.6561 24.4361 47.6562 24.3024V15.6262C47.6556 15.0048 47.4084 14.4091 46.969 13.9697C46.5296 13.5303 45.9339 13.2831 45.3125 13.2825H20.3125C19.6911 13.2831 19.0954 13.5303 18.656 13.9697C18.2166 14.4091 17.9694 15.0048 17.9688 15.6262V40.6262C17.9694 41.2476 18.2166 41.8434 18.656 42.2828C19.0954 42.7221 19.6911 42.9693 20.3125 42.97H27.8709C27.7058 43.6672 27.69 44.3916 27.8247 45.0953C27.9594 45.7991 28.2416 46.4664 28.6526 47.0534C29.0636 47.6404 29.5942 48.1337 30.2095 48.501C30.8247 48.8683 31.5108 49.1012 32.2225 49.1844C32.9342 49.2677 33.6555 49.1994 34.3389 48.984C35.0223 48.7686 35.6524 48.411 36.1878 47.9347C36.7231 47.4584 37.1516 46.8742 37.4451 46.2205C37.7386 45.5668 37.8904 44.8584 37.8906 44.1418C37.8911 43.7472 37.8453 43.3539 37.7541 42.97H45.3125C45.9339 42.9693 46.5296 42.7221 46.969 42.2828C47.4084 41.8434 47.6556 41.2476 47.6562 40.6262V31.9501C47.6561 31.8164 47.6217 31.6849 47.5563 31.5683C47.4909 31.4517 47.3966 31.3539 47.2826 31.2841C47.1685 31.2143 47.0385 31.175 46.9049 31.1698C46.7713 31.1647 46.6386 31.1939 46.5195 31.2547C45.8034 31.6113 44.9882 31.7165 44.2051 31.5533C43.4219 31.39 42.7166 30.9678 42.2028 30.3548C41.8214 29.8912 41.5652 29.3377 41.4586 28.747C41.352 28.1564 41.3985 27.5482 41.5936 26.9806C41.7888 26.413 42.1261 25.9048 42.5735 25.5046C43.0208 25.1044 43.5633 24.8255 44.149 24.6945ZM26.5625 39.845H21.875C21.6678 39.845 21.4691 39.7627 21.3226 39.6161C21.1761 39.4696 21.0938 39.2709 21.0938 39.0637V34.567C21.0938 34.3598 21.1761 34.161 21.3226 34.0145C21.4691 33.868 21.6678 33.7857 21.875 33.7857C22.0822 33.7857 22.2809 33.868 22.4274 34.0145C22.5739 34.161 22.6562 34.3598 22.6562 34.567V38.2825H26.5625C26.7697 38.2825 26.9684 38.3648 27.1149 38.5113C27.2614 38.6578 27.3438 38.8565 27.3438 39.0637C27.3438 39.2709 27.2614 39.4696 27.1149 39.6161C26.9684 39.7627 26.7697 39.845 26.5625 39.845Z" fill="#E5ECFC"/>
<path d="M35.9375 0.78125H4.6875C4.06611 0.781928 3.47036 1.02908 3.03097 1.46847C2.59158 1.90786 2.34443 2.50361 2.34375 3.125V28.125C2.34443 28.7464 2.59158 29.3421 3.03097 29.7815C3.47036 30.2209 4.06611 30.4681 4.6875 30.4688H9.93681L8.61702 35.7479C8.56674 35.9489 8.59837 36.1617 8.70497 36.3394C8.81156 36.5171 8.98438 36.6452 9.18541 36.6955C9.38643 36.7458 9.5992 36.7141 9.77691 36.6075C9.95461 36.5009 10.0827 36.3281 10.133 36.1271L11.5476 30.4688H29.0778L30.4924 36.1271C30.5173 36.2266 30.5615 36.3202 30.6226 36.4026C30.6837 36.485 30.7604 36.5545 30.8484 36.6073C30.9363 36.66 31.0338 36.6949 31.1352 36.71C31.2367 36.7251 31.3401 36.72 31.4396 36.6951C31.5391 36.6702 31.6327 36.626 31.7151 36.5649C31.7975 36.5038 31.867 36.4271 31.9198 36.3391C31.9725 36.2512 32.0074 36.1537 32.0225 36.0523C32.0376 35.9508 32.0325 35.8474 32.0076 35.7479L30.6878 30.4688H35.9375C36.5589 30.4681 37.1546 30.2209 37.594 29.7815C38.0334 29.3421 38.2806 28.7464 38.2812 28.125V3.125C38.2806 2.50361 38.0334 1.90786 37.594 1.46847C37.1546 1.02908 36.5589 0.781928 35.9375 0.78125ZM4.6875 2.34375H35.9375C36.1446 2.34396 36.3432 2.42633 36.4897 2.5728C36.6362 2.71927 36.7185 2.91786 36.7188 3.125V7.03125H3.90625V3.125C3.90652 2.91788 3.98891 2.71932 4.13537 2.57287C4.28182 2.42642 4.48038 2.34402 4.6875 2.34375ZM35.9375 28.9062H4.6875C4.48038 28.906 4.28182 28.8236 4.13537 28.6771C3.98891 28.5307 3.90652 28.3321 3.90625 28.125V8.59375H36.7188V28.125C36.7185 28.3321 36.6362 28.5307 36.4897 28.6772C36.3432 28.8237 36.1446 28.906 35.9375 28.9062Z" fill="#051B43"/>
<path d="M25.8637 16.0568C25.7716 16.242 25.7567 16.4563 25.8224 16.6525C25.888 16.8487 26.0288 17.0109 26.2139 17.1034C26.399 17.1959 26.6132 17.2113 26.8095 17.1461C27.0059 17.0809 27.1684 16.9405 27.2614 16.7556L28.8239 13.6306C28.8698 13.5389 28.8971 13.4389 28.9044 13.3366C28.9117 13.2342 28.8987 13.1315 28.8663 13.0341C28.8338 12.9368 28.7825 12.8468 28.7153 12.7692C28.6481 12.6917 28.5662 12.6282 28.4744 12.5823L25.3494 11.0198C25.2576 10.9737 25.1576 10.9461 25.0551 10.9386C24.9526 10.9311 24.8497 10.9439 24.7522 10.9763C24.6546 11.0087 24.5644 11.06 24.4868 11.1273C24.4091 11.1946 24.3455 11.2765 24.2995 11.3684C24.2535 11.4604 24.2262 11.5604 24.2189 11.6629C24.2117 11.7654 24.2248 11.8684 24.2574 11.9658C24.29 12.0633 24.3415 12.1533 24.409 12.2309C24.4765 12.3084 24.5586 12.3718 24.6506 12.4175L25.9646 13.0745C16.3193 16.1701 11.8958 24.5243 11.8252 24.6063C11.7735 24.6949 11.7398 24.7928 11.7259 24.8945C11.7121 24.9961 11.7184 25.0995 11.7445 25.1987C11.7706 25.298 11.816 25.3911 11.8781 25.4727C11.9401 25.5544 12.0177 25.6231 12.1063 25.6748C12.1949 25.7265 12.2929 25.7602 12.3945 25.7741C12.4962 25.7879 12.5996 25.7816 12.6988 25.7555C12.798 25.7294 12.8911 25.684 12.9728 25.6219C13.0545 25.5598 13.1231 25.4822 13.1748 25.3936C16.1333 20.1967 20.9424 16.3064 26.6427 14.4988L25.8637 16.0568Z" fill="#051B43"/>
<path d="M28.5156 19.5312C27.9748 19.5312 27.4462 19.6916 26.9965 19.9921C26.5468 20.2925 26.1964 20.7196 25.9894 21.2192C25.7824 21.7189 25.7283 22.2687 25.8338 22.7991C25.9393 23.3295 26.1997 23.8167 26.5821 24.1991C26.9645 24.5815 27.4518 24.842 27.9822 24.9475C28.5126 25.053 29.0624 24.9988 29.562 24.7919C30.0617 24.5849 30.4887 24.2344 30.7892 23.7848C31.0896 23.3351 31.25 22.8064 31.25 22.2656C31.2491 21.5407 30.9608 20.8457 30.4482 20.3331C29.9355 19.8205 29.2406 19.5321 28.5156 19.5312ZM28.5156 23.4375C28.2839 23.4375 28.0573 23.3688 27.8646 23.24C27.6719 23.1112 27.5217 22.9282 27.433 22.7141C27.3443 22.4999 27.3211 22.2643 27.3663 22.037C27.4115 21.8097 27.5231 21.6009 27.687 21.437C27.8509 21.2731 28.0597 21.1615 28.287 21.1163C28.5143 21.0711 28.7499 21.0943 28.9641 21.183C29.1782 21.2717 29.3612 21.4219 29.49 21.6146C29.6188 21.8073 29.6875 22.0338 29.6875 22.2656C29.6872 22.5763 29.5636 22.8742 29.3439 23.0939C29.1242 23.3136 28.8263 23.4372 28.5156 23.4375Z" fill="#051B43"/>
<path d="M12.8028 17.0534C12.9493 17.1999 13.148 17.2822 13.3552 17.2822C13.5624 17.2822 13.7611 17.1999 13.9076 17.0534C14.0541 16.9069 14.1364 16.7082 14.1364 16.501C14.1364 16.2939 14.0541 16.0952 13.9076 15.9487L12.8025 14.8436L13.9228 13.7232C13.9953 13.6506 14.0529 13.5645 14.0921 13.4698C14.1314 13.375 14.1516 13.2734 14.1516 13.1708C14.1516 13.0682 14.1314 12.9666 14.0921 12.8719C14.0529 12.7771 13.9953 12.691 13.9228 12.6184C13.8503 12.5459 13.7641 12.4884 13.6694 12.4491C13.5746 12.4099 13.473 12.3896 13.3704 12.3896C13.2678 12.3896 13.1663 12.4099 13.0715 12.4491C12.9767 12.4884 12.8906 12.5459 12.8181 12.6184L11.6978 13.7389L10.593 12.6341C10.5204 12.5615 10.4343 12.504 10.3395 12.4647C10.2448 12.4255 10.1432 12.4053 10.0406 12.4053C9.93801 12.4053 9.83643 12.4255 9.74165 12.4647C9.64687 12.504 9.56076 12.5615 9.48822 12.6341C9.41568 12.7066 9.35813 12.7927 9.31887 12.8875C9.27961 12.9823 9.25941 13.0839 9.2594 13.1864C9.2594 13.289 9.27961 13.3906 9.31886 13.4854C9.35812 13.5802 9.41566 13.6663 9.4882 13.7388L10.5931 14.8437L9.47294 15.9639C9.32644 16.1104 9.24414 16.3091 9.24414 16.5163C9.24414 16.7235 9.32644 16.9222 9.47294 17.0687C9.61944 17.2152 9.81813 17.2975 10.0253 17.2975C10.2325 17.2975 10.4312 17.2152 10.5777 17.0687L11.6978 15.9484L12.8028 17.0534Z" fill="#051B43"/>
</svg>
