<svg width="51" height="50" viewBox="0 0 51 50" fill="none" xmlns="http://www.w3.org/2000/svg">
<path d="M44.649 24.6945C45.4501 24.5154 46.2886 24.6227 47.0187 24.9978C47.1378 25.0586 47.2706 25.0879 47.4043 25.0828C47.5379 25.0776 47.668 25.0383 47.7822 24.9685C47.8963 24.8988 47.9906 24.8009 48.0561 24.6843C48.1216 24.5676 48.1561 24.4361 48.1562 24.3024V15.6262C48.1556 15.0048 47.9084 14.4091 47.469 13.9697C47.0296 13.5303 46.4339 13.2831 45.8125 13.2825H20.8125C20.1911 13.2831 19.5954 13.5303 19.156 13.9697C18.7166 14.4091 18.4694 15.0048 18.4688 15.6262V40.6262C18.4694 41.2476 18.7166 41.8434 19.156 42.2828C19.5954 42.7221 20.1911 42.9693 20.8125 42.97H28.3709C28.2058 43.6672 28.19 44.3916 28.3247 45.0953C28.4594 45.7991 28.7416 46.4664 29.1526 47.0534C29.5636 47.6404 30.0942 48.1337 30.7095 48.501C31.3247 48.8683 32.0108 49.1012 32.7225 49.1844C33.4342 49.2677 34.1555 49.1994 34.8389 48.984C35.5223 48.7686 36.1524 48.411 36.6878 47.9347C37.2231 47.4584 37.6516 46.8742 37.9451 46.2205C38.2386 45.5668 38.3904 44.8584 38.3906 44.1418C38.3911 43.7472 38.3453 43.3539 38.2541 42.97H45.8125C46.4339 42.9693 47.0296 42.7221 47.469 42.2828C47.9084 41.8434 48.1556 41.2476 48.1562 40.6262V31.9501C48.1561 31.8164 48.1217 31.6849 48.0563 31.5683C47.9909 31.4517 47.8966 31.3539 47.7826 31.2841C47.6685 31.2143 47.5385 31.175 47.4049 31.1698C47.2713 31.1647 47.1386 31.1939 47.0195 31.2547C46.3034 31.6113 45.4882 31.7165 44.7051 31.5533C43.9219 31.39 43.2166 30.9678 42.7028 30.3548C42.3214 29.8912 42.0652 29.3377 41.9586 28.747C41.852 28.1564 41.8985 27.5482 42.0936 26.9806C42.2888 26.413 42.6261 25.9048 43.0735 25.5046C43.5208 25.1044 44.0633 24.8255 44.649 24.6945ZM27.0625 39.845H22.375C22.1678 39.845 21.9691 39.7627 21.8226 39.6161C21.6761 39.4696 21.5938 39.2709 21.5938 39.0637V34.567C21.5938 34.3598 21.6761 34.161 21.8226 34.0145C21.9691 33.868 22.1678 33.7857 22.375 33.7857C22.5822 33.7857 22.7809 33.868 22.9274 34.0145C23.0739 34.161 23.1562 34.3598 23.1562 34.567V38.2825H27.0625C27.2697 38.2825 27.4684 38.3648 27.6149 38.5113C27.7614 38.6578 27.8438 38.8565 27.8438 39.0637C27.8438 39.2709 27.7614 39.4696 27.6149 39.6161C27.4684 39.7627 27.2697 39.845 27.0625 39.845Z" fill="#FFF3D3"/>
<path d="M36.4375 0.78125H5.1875C4.56611 0.781928 3.97036 1.02908 3.53097 1.46847C3.09158 1.90786 2.84443 2.50361 2.84375 3.125V28.125C2.84443 28.7464 3.09158 29.3421 3.53097 29.7815C3.97036 30.2209 4.56611 30.4681 5.1875 30.4688H10.4368L9.11702 35.7479C9.06674 35.9489 9.09837 36.1617 9.20497 36.3394C9.31156 36.5171 9.48438 36.6452 9.68541 36.6955C9.88643 36.7458 10.0992 36.7141 10.2769 36.6075C10.4546 36.5009 10.5827 36.3281 10.633 36.1271L12.0476 30.4688H29.5778L30.9924 36.1271C31.0173 36.2266 31.0615 36.3202 31.1226 36.4026C31.1837 36.485 31.2604 36.5545 31.3484 36.6073C31.4363 36.66 31.5338 36.6949 31.6352 36.71C31.7367 36.7251 31.8401 36.72 31.9396 36.6951C32.0391 36.6702 32.1327 36.626 32.2151 36.5649C32.2975 36.5038 32.367 36.4271 32.4198 36.3391C32.4725 36.2512 32.5074 36.1537 32.5225 36.0523C32.5376 35.9508 32.5325 35.8474 32.5076 35.7479L31.1878 30.4688H36.4375C37.0589 30.4681 37.6546 30.2209 38.094 29.7815C38.5334 29.3421 38.7806 28.7464 38.7812 28.125V3.125C38.7806 2.50361 38.5334 1.90786 38.094 1.46847C37.6546 1.02908 37.0589 0.781928 36.4375 0.78125ZM5.1875 2.34375H36.4375C36.6446 2.34396 36.8432 2.42633 36.9897 2.5728C37.1362 2.71927 37.2185 2.91786 37.2188 3.125V7.03125H4.40625V3.125C4.40652 2.91788 4.48891 2.71932 4.63537 2.57287C4.78182 2.42642 4.98038 2.34402 5.1875 2.34375ZM36.4375 28.9062H5.1875C4.98038 28.906 4.78182 28.8236 4.63537 28.6771C4.48891 28.5307 4.40652 28.3321 4.40625 28.125V8.59375H37.2188V28.125C37.2185 28.3321 37.1362 28.5307 36.9897 28.6772C36.8432 28.8237 36.6446 28.906 36.4375 28.9062Z" fill="#151A6A"/>
<path d="M26.3637 16.0568C26.2716 16.242 26.2567 16.4563 26.3224 16.6525C26.388 16.8487 26.5288 17.0109 26.7139 17.1034C26.899 17.1959 27.1132 17.2113 27.3095 17.1461C27.5059 17.0809 27.6684 16.9405 27.7614 16.7556L29.3239 13.6306C29.3698 13.5389 29.3971 13.4389 29.4044 13.3366C29.4117 13.2342 29.3987 13.1315 29.3663 13.0341C29.3338 12.9368 29.2825 12.8468 29.2153 12.7692C29.1481 12.6917 29.0662 12.6282 28.9744 12.5823L25.8494 11.0198C25.7576 10.9737 25.6576 10.9461 25.5551 10.9386C25.4526 10.9311 25.3497 10.9439 25.2522 10.9763C25.1546 11.0087 25.0644 11.06 24.9868 11.1273C24.9091 11.1946 24.8455 11.2765 24.7995 11.3684C24.7535 11.4604 24.7262 11.5604 24.7189 11.6629C24.7117 11.7654 24.7248 11.8684 24.7574 11.9658C24.79 12.0633 24.8415 12.1533 24.909 12.2309C24.9765 12.3084 25.0586 12.3718 25.1506 12.4175L26.4646 13.0745C16.8193 16.1701 12.3958 24.5243 12.3252 24.6063C12.2735 24.6949 12.2398 24.7928 12.2259 24.8945C12.2121 24.9961 12.2184 25.0995 12.2445 25.1987C12.2706 25.298 12.316 25.3911 12.3781 25.4727C12.4401 25.5544 12.5177 25.6231 12.6063 25.6748C12.6949 25.7265 12.7929 25.7602 12.8945 25.7741C12.9962 25.7879 13.0996 25.7816 13.1988 25.7555C13.298 25.7294 13.3911 25.684 13.4728 25.6219C13.5545 25.5598 13.6231 25.4822 13.6748 25.3936C16.6333 20.1967 21.4424 16.3064 27.1427 14.4988L26.3637 16.0568Z" fill="#151A6A"/>
<path d="M29.0156 19.5312C28.4748 19.5312 27.9462 19.6916 27.4965 19.9921C27.0468 20.2925 26.6964 20.7196 26.4894 21.2192C26.2824 21.7189 26.2283 22.2687 26.3338 22.7991C26.4393 23.3295 26.6997 23.8167 27.0821 24.1991C27.4645 24.5815 27.9518 24.842 28.4822 24.9475C29.0126 25.053 29.5624 24.9988 30.062 24.7919C30.5617 24.5849 30.9887 24.2344 31.2892 23.7848C31.5896 23.3351 31.75 22.8064 31.75 22.2656C31.7491 21.5407 31.4608 20.8457 30.9482 20.3331C30.4355 19.8205 29.7406 19.5321 29.0156 19.5312ZM29.0156 23.4375C28.7839 23.4375 28.5573 23.3688 28.3646 23.24C28.1719 23.1112 28.0217 22.9282 27.933 22.7141C27.8443 22.4999 27.8211 22.2643 27.8663 22.037C27.9115 21.8097 28.0231 21.6009 28.187 21.437C28.3509 21.2731 28.5597 21.1615 28.787 21.1163C29.0143 21.0711 29.2499 21.0943 29.4641 21.183C29.6782 21.2717 29.8612 21.4219 29.99 21.6146C30.1188 21.8073 30.1875 22.0338 30.1875 22.2656C30.1872 22.5763 30.0636 22.8742 29.8439 23.0939C29.6242 23.3136 29.3263 23.4372 29.0156 23.4375Z" fill="#151A6A"/>
<path d="M13.3028 17.0534C13.4493 17.1999 13.648 17.2822 13.8552 17.2822C14.0624 17.2822 14.2611 17.1999 14.4076 17.0534C14.5541 16.9069 14.6364 16.7082 14.6364 16.501C14.6364 16.2939 14.5541 16.0952 14.4076 15.9487L13.3025 14.8436L14.4228 13.7232C14.4953 13.6506 14.5529 13.5645 14.5921 13.4698C14.6314 13.375 14.6516 13.2734 14.6516 13.1708C14.6516 13.0682 14.6314 12.9666 14.5921 12.8719C14.5529 12.7771 14.4953 12.691 14.4228 12.6184C14.3503 12.5459 14.2641 12.4884 14.1694 12.4491C14.0746 12.4099 13.973 12.3896 13.8704 12.3896C13.7678 12.3896 13.6663 12.4099 13.5715 12.4491C13.4767 12.4884 13.3906 12.5459 13.3181 12.6184L12.1978 13.7389L11.093 12.6341C11.0204 12.5615 10.9343 12.504 10.8395 12.4647C10.7448 12.4255 10.6432 12.4053 10.5406 12.4053C10.438 12.4053 10.3364 12.4255 10.2417 12.4647C10.1469 12.504 10.0608 12.5615 9.98822 12.6341C9.91568 12.7066 9.85813 12.7927 9.81887 12.8875C9.77961 12.9823 9.75941 13.0839 9.7594 13.1864C9.7594 13.289 9.77961 13.3906 9.81886 13.4854C9.85812 13.5802 9.91566 13.6663 9.9882 13.7388L11.0931 14.8437L9.97294 15.9639C9.82644 16.1104 9.74414 16.3091 9.74414 16.5163C9.74414 16.7235 9.82644 16.9222 9.97294 17.0687C10.1194 17.2152 10.3181 17.2975 10.5253 17.2975C10.7325 17.2975 10.9312 17.2152 11.0777 17.0687L12.1978 15.9484L13.3028 17.0534Z" fill="#151A6A"/>
</svg>
