<svg width="28" height="28" viewBox="0 0 28 28" fill="none" xmlns="http://www.w3.org/2000/svg">
<path d="M23.5094 18.238H5.15661M23.5094 18.238V9.37236C23.5094 7.15361 23.5094 6.04541 22.8062 5.35602C22.1042 4.66663 20.9726 4.66663 18.7094 4.66663H9.95661C7.69341 4.66663 6.56301 4.66663 5.85981 5.35602C5.15661 6.04541 5.15661 7.15361 5.15661 9.37236V18.238M23.5094 18.238L25.6022 20.3555L25.7078 20.4638C26.0927 20.8783 26.314 21.414 26.3318 21.9743L26.333 22.1237C26.333 22.3002 26.333 22.3872 26.3282 22.4614C26.2914 23.033 26.0432 23.5718 25.63 23.9768C25.2169 24.3818 24.6673 24.6252 24.0842 24.6613C23.9695 24.6661 23.8546 24.6676 23.7398 24.666H4.92621C4.74621 24.666 4.65741 24.666 4.58181 24.6613C3.99873 24.6252 3.4491 24.3818 3.03598 23.9768C2.62286 23.5718 2.37462 23.033 2.33781 22.4614C2.33301 22.3872 2.33301 22.299 2.33301 22.1249L2.33421 21.9755C2.35201 21.4152 2.5733 20.8795 2.95821 20.4649L3.06381 20.3567L5.15661 18.238M11.333 21.7249H17.333" stroke="#051B43" stroke-width="2" stroke-linecap="round"/>
<path d="M14.2336 7.90184C14.2336 7.87881 14.2394 7.85788 14.2486 7.84042C14.2545 7.82932 14.2618 7.81961 14.2699 7.81165C14.2901 7.79184 14.3134 7.78417 14.3336 7.78417C14.3538 7.78417 14.377 7.79184 14.3973 7.81165C14.4054 7.81961 14.4127 7.82932 14.4186 7.84042C14.4278 7.85788 14.4336 7.87881 14.4336 7.90184C14.4336 7.92488 14.4278 7.9458 14.4186 7.96326C14.4127 7.97437 14.4054 7.98407 14.3973 7.99203C14.377 8.01184 14.3538 8.01952 14.3336 8.01952C14.3134 8.01952 14.2901 8.01184 14.2699 7.99203C14.2618 7.98407 14.2545 7.97437 14.2486 7.96326C14.2394 7.9458 14.2336 7.92488 14.2336 7.90184Z" fill="black" stroke="#051B43" stroke-width="2"/>
</svg>
