<svg width="26" height="28" viewBox="0 0 26 28" fill="none" xmlns="http://www.w3.org/2000/svg">
<path d="M22.1764 17.5714H3.8236M22.1764 17.5714V8.70573C22.1764 6.48698 22.1764 5.37878 21.4732 4.68939C20.7712 4 19.6396 4 17.3764 4H8.6236C6.3604 4 5.23 4 4.5268 4.68939C3.8236 5.37878 3.8236 6.48698 3.8236 8.70573V17.5714M22.1764 17.5714L24.2692 19.6889L24.3748 19.7972C24.7597 20.2117 24.981 20.7474 24.9988 21.3077L25 21.4571C25 21.6336 25 21.7206 24.9952 21.7948C24.9584 22.3664 24.7102 22.9052 24.297 23.3102C23.8839 23.7152 23.3343 23.9586 22.7512 23.9947C22.6365 23.9995 22.5216 24.001 22.4068 23.9994H3.5932C3.4132 23.9994 3.3244 23.9994 3.2488 23.9947C2.66572 23.9586 2.11609 23.7152 1.70297 23.3102C1.28985 22.9052 1.04161 22.3664 1.0048 21.7948C1 21.7206 1 21.6324 1 21.4583L1.0012 21.3089C1.019 20.7486 1.24029 20.2129 1.6252 19.7983L1.7308 19.6901L3.8236 17.5714M9.99999 21.0583H16" stroke="#051B43" stroke-width="2" stroke-linecap="round"/>
<path d="M12.9006 7.23521C12.9006 7.21218 12.9064 7.19125 12.9156 7.17379C12.9215 7.16269 12.9288 7.15298 12.9369 7.14502C12.9571 7.12521 12.9804 7.11754 13.0006 7.11754C13.0208 7.11754 13.044 7.12521 13.0643 7.14502C13.0724 7.15298 13.0797 7.16269 13.0856 7.17379C13.0948 7.19125 13.1006 7.21218 13.1006 7.23521C13.1006 7.25825 13.0948 7.27917 13.0856 7.29663C13.0797 7.30774 13.0724 7.31744 13.0643 7.3254C13.044 7.34521 13.0208 7.35289 13.0006 7.35289C12.9804 7.35289 12.9571 7.34521 12.9369 7.3254C12.9288 7.31744 12.9215 7.30774 12.9156 7.29663C12.9064 7.27917 12.9006 7.25825 12.9006 7.23521Z" fill="black" stroke="#051B43" stroke-width="2"/>
</svg>
