<svg width="27" height="26" viewBox="0 0 27 26" fill="none" xmlns="http://www.w3.org/2000/svg">
<path d="M24.5 0H2.5C1.96957 0 1.46086 0.210714 1.08579 0.585786C0.710714 0.960859 0.5 1.46957 0.5 2V24C0.5 24.5304 0.710714 25.0391 1.08579 25.4142C1.46086 25.7893 1.96957 26 2.5 26H24.5C25.0304 26 25.5391 25.7893 25.9142 25.4142C26.2893 25.0391 26.5 24.5304 26.5 24V2C26.5 1.46957 26.2893 0.960859 25.9142 0.585786C25.5391 0.210714 25.0304 0 24.5 0ZM24.5 24H2.5V2H24.5V24ZM9.5 11V19C9.5 19.2652 9.39464 19.5196 9.20711 19.7071C9.01957 19.8946 8.76522 20 8.5 20C8.23478 20 7.98043 19.8946 7.79289 19.7071C7.60536 19.5196 7.5 19.2652 7.5 19V11C7.5 10.7348 7.60536 10.4804 7.79289 10.2929C7.98043 10.1054 8.23478 10 8.5 10C8.76522 10 9.01957 10.1054 9.20711 10.2929C9.39464 10.4804 9.5 10.7348 9.5 11ZM20.5 14.5V19C20.5 19.2652 20.3946 19.5196 20.2071 19.7071C20.0196 19.8946 19.7652 20 19.5 20C19.2348 20 18.9804 19.8946 18.7929 19.7071C18.6054 19.5196 18.5 19.2652 18.5 19V14.5C18.5 13.837 18.2366 13.2011 17.7678 12.7322C17.2989 12.2634 16.663 12 16 12C15.337 12 14.7011 12.2634 14.2322 12.7322C13.7634 13.2011 13.5 13.837 13.5 14.5V19C13.5 19.2652 13.3946 19.5196 13.2071 19.7071C13.0196 19.8946 12.7652 20 12.5 20C12.2348 20 11.9804 19.8946 11.7929 19.7071C11.6054 19.5196 11.5 19.2652 11.5 19V11C11.5012 10.7551 11.5923 10.5191 11.756 10.3369C11.9197 10.1546 12.1446 10.0388 12.388 10.0114C12.6314 9.98392 12.8764 10.0468 13.0765 10.188C13.2767 10.3292 13.418 10.539 13.4738 10.7775C14.1502 10.3186 14.9389 10.0526 15.7552 10.0081C16.5714 9.96368 17.3844 10.1424 18.1067 10.5251C18.829 10.9078 19.4335 11.48 19.8551 12.1803C20.2768 12.8806 20.4997 13.6825 20.5 14.5ZM10 7.5C10 7.79667 9.91203 8.08668 9.7472 8.33335C9.58238 8.58003 9.34811 8.77229 9.07403 8.88582C8.79994 8.99935 8.49834 9.02906 8.20736 8.97118C7.91639 8.9133 7.64912 8.77044 7.43934 8.56066C7.22956 8.35088 7.0867 8.08361 7.02882 7.79264C6.97094 7.50166 7.00065 7.20006 7.11418 6.92597C7.22771 6.65189 7.41997 6.41762 7.66665 6.2528C7.91332 6.08797 8.20333 6 8.5 6C8.89782 6 9.27936 6.15804 9.56066 6.43934C9.84196 6.72064 10 7.10218 10 7.5Z" fill="#051B43"/>
</svg>
