<svg width="9" height="11" viewBox="0 0 9 11" fill="none" xmlns="http://www.w3.org/2000/svg">
<path d="M7.32687 1.02993L7.25634 4.41827C7.25395 4.53333 7.2813 4.64675 7.33515 4.74507L8.92104 7.64033C8.97159 7.7326 8.99884 7.83822 8.99996 7.94623C9.00109 8.05425 8.97603 8.16071 8.92742 8.25426C8.87881 8.34781 8.80844 8.4251 8.72369 8.47803C8.63894 8.53095 8.54291 8.55748 8.44572 8.55498L5.39614 8.47661C5.29258 8.47396 5.19055 8.50435 5.10207 8.56418L2.49632 10.3263C2.41328 10.3825 2.31817 10.4128 2.22095 10.414C2.12374 10.4153 2.02797 10.3874 1.94378 10.3334C1.85958 10.2794 1.79002 10.2012 1.74239 10.1071C1.69475 10.0129 1.67083 9.90619 1.67308 9.79819L1.74361 6.40973C1.74598 6.29467 1.71864 6.18137 1.66479 6.08306L0.0789024 3.1878C0.0283845 3.09552 0.0011458 2.98977 3.53752e-05 2.88177C-0.00107505 2.77378 0.023975 2.66751 0.0725825 2.57398C0.12119 2.48045 0.191571 2.40314 0.276309 2.35021C0.361047 2.29729 0.457049 2.27066 0.554229 2.27315L3.60376 2.35151C3.70731 2.35415 3.80939 2.32377 3.89787 2.26394L6.50362 0.50191C6.58667 0.445752 6.68178 0.415355 6.77899 0.414103C6.8762 0.41285 6.97192 0.440708 7.05612 0.49471C7.14031 0.548713 7.20987 0.626913 7.25751 0.721072C7.30514 0.81523 7.3291 0.921941 7.32687 1.02993Z" fill="#11FACA"/>
</svg>
