<svg width="12" height="28" viewBox="0 0 12 28" fill="none" xmlns="http://www.w3.org/2000/svg">
<g clip-path="url(#clip0_1_6)">
<path fill-rule="evenodd" clip-rule="evenodd" d="M4.1617 3H7.8388C8.3659 2.99998 8.8206 2.99997 9.1951 3.03312C9.5904 3.06812 9.9835 3.14541 10.3618 3.35423C10.9259 3.66559 11.3854 4.16259 11.6732 4.77456C11.8661 5.18459 11.9373 5.61068 11.9696 6.03891C12 6.44396 12 6.93569 12 7.50548V20.1612C12 20.731 12 21.2228 11.9696 21.6278C11.9373 22.0561 11.8661 22.4821 11.6732 22.8922C11.3854 23.5041 10.9258 24.0011 10.3618 24.3124C9.9835 24.5212 9.5904 24.5985 9.1951 24.6335C8.8205 24.6667 8.3657 24.6667 7.8384 24.6667H4.1621C3.6347 24.6667 3.1797 24.6667 2.805 24.6335C2.4096 24.5985 2.0162 24.5213 1.63781 24.3124C1.07311 24.0007 0.614491 23.5034 0.326981 22.8922C0.134191 22.4822 0.062871 22.0563 0.030571 21.6279C-2.8966e-05 21.2222 -1.89968e-05 20.7295 1.0032e-06 20.1585V7.50826C-1.89968e-05 6.93718 -2.8966e-05 6.44452 0.030571 6.03874C0.062871 5.61045 0.134191 5.18447 0.326981 4.77456C0.614471 4.16331 1.07306 3.66596 1.63781 3.35423C2.0163 3.14534 2.4096 3.0681 2.805 3.03312C3.1797 2.99997 3.6345 2.99998 4.1617 3ZM2.9678 5.19259C2.696 5.21665 2.5952 5.25748 2.5458 5.28475C2.3579 5.38847 2.205 5.55408 2.109 5.7582C2.0838 5.81177 2.0461 5.92088 2.0239 6.21518C2.0008 6.52212 2 6.92542 2 7.55001V20.1167C2 20.7413 2.0008 21.1445 2.0239 21.4515C2.0461 21.7458 2.0838 21.8549 2.109 21.9085C2.205 22.1126 2.3578 22.2781 2.5458 22.3819C2.5952 22.4091 2.696 22.45 2.9678 22.4741C3.2513 22.4991 3.6237 22.5 4.2002 22.5H7.8002C8.3767 22.5 8.7489 22.4991 9.0321 22.4741C9.3036 22.4501 9.4043 22.4092 9.4538 22.3819C9.6424 22.2778 9.7956 22.1118 9.8912 21.9085C9.9164 21.855 9.954 21.746 9.9762 21.4517C9.9993 21.1446 10 20.7414 10 20.1167V7.55001C10 6.92531 9.9993 6.52203 9.9762 6.21501C9.954 5.92065 9.9164 5.81165 9.8912 5.7582C9.7956 5.5548 9.6424 5.38884 9.4538 5.28475C9.4043 5.25742 9.3036 5.21663 9.0321 5.19259C8.7489 5.16751 8.3768 5.16667 7.8002 5.16667H4.2002C3.6237 5.16667 3.2513 5.16751 2.9678 5.19259ZM5 20.3333C5 19.735 5.4477 19.25 6 19.25H6.002C6.2713 19.25 6.5292 19.3677 6.7173 19.5763C6.9055 19.785 7.008 20.0671 7.0017 20.3587V20.3609C6.9891 20.9461 6.5496 21.4145 6.0093 21.4188H6.0073C5.7408 21.4209 5.4846 21.3077 5.2955 21.1043C5.1064 20.901 5 20.6242 5 20.3355V20.3333Z" fill="#051B43"/>
</g>
<defs>
<clipPath id="clip0_1_6">
<rect width="12" height="28" fill="white"/>
</clipPath>
</defs>
</svg>
