<svg width="28" height="28" viewBox="0 0 28 28" fill="none" xmlns="http://www.w3.org/2000/svg">
<path fill-rule="evenodd" clip-rule="evenodd" d="M12.1617 3H15.8388C16.3659 2.99998 16.8206 2.99997 17.1951 3.03312C17.5904 3.06812 17.9835 3.14541 18.3618 3.35423C18.9259 3.66559 19.3854 4.16259 19.6732 4.77456C19.8661 5.18459 19.9373 5.61068 19.9696 6.03891C20 6.44396 20 6.93569 20 7.50548V20.1612C20 20.731 20 21.2228 19.9696 21.6278C19.9373 22.0561 19.8661 22.4821 19.6732 22.8922C19.3854 23.5041 18.9258 24.0011 18.3618 24.3124C17.9835 24.5212 17.5904 24.5985 17.1951 24.6335C16.8205 24.6667 16.3657 24.6667 15.8384 24.6667H12.1621C11.6347 24.6667 11.1797 24.6667 10.805 24.6335C10.4096 24.5985 10.0162 24.5213 9.63781 24.3124C9.07311 24.0007 8.61449 23.5034 8.32698 22.8922C8.13419 22.4822 8.06287 22.0563 8.03057 21.6279C7.99997 21.2222 7.99998 20.7295 8 20.1585V7.50826C7.99998 6.93718 7.99997 6.44452 8.03057 6.03874C8.06287 5.61045 8.13419 5.18447 8.32698 4.77456C8.61447 4.16331 9.07306 3.66596 9.63781 3.35423C10.0163 3.14534 10.4096 3.0681 10.805 3.03312C11.1797 2.99997 11.6345 2.99998 12.1617 3ZM10.9678 5.19259C10.696 5.21665 10.5952 5.25748 10.5458 5.28475C10.3579 5.38847 10.205 5.55408 10.109 5.7582C10.0838 5.81177 10.0461 5.92088 10.0239 6.21518C10.0008 6.52212 10 6.92542 10 7.55001V20.1167C10 20.7413 10.0008 21.1445 10.0239 21.4515C10.0461 21.7458 10.0838 21.8549 10.109 21.9085C10.205 22.1126 10.3578 22.2781 10.5458 22.3819C10.5952 22.4091 10.696 22.45 10.9678 22.4741C11.2513 22.4991 11.6237 22.5 12.2002 22.5H15.8002C16.3767 22.5 16.7489 22.4991 17.0321 22.4741C17.3036 22.4501 17.4043 22.4092 17.4538 22.3819C17.6424 22.2778 17.7956 22.1118 17.8912 21.9085C17.9164 21.855 17.954 21.746 17.9762 21.4517C17.9993 21.1446 18 20.7414 18 20.1167V7.55001C18 6.92531 17.9993 6.52203 17.9762 6.21501C17.954 5.92065 17.9164 5.81165 17.8912 5.7582C17.7956 5.5548 17.6424 5.38884 17.4538 5.28475C17.4043 5.25742 17.3036 5.21663 17.0321 5.19259C16.7489 5.16751 16.3768 5.16667 15.8002 5.16667H12.2002C11.6237 5.16667 11.2513 5.16751 10.9678 5.19259ZM13 20.3333C13 19.735 13.4477 19.25 14 19.25H14.002C14.2713 19.25 14.5292 19.3677 14.7173 19.5763C14.9055 19.785 15.008 20.0671 15.0017 20.3587V20.3609C14.9891 20.9461 14.5496 21.4145 14.0093 21.4188H14.0073C13.7408 21.4209 13.4846 21.3077 13.2955 21.1043C13.1064 20.901 13 20.6242 13 20.3355V20.3333Z" fill="#051B43"/>
</svg>
