<svg width="28" height="28" viewBox="0 0 28 28" fill="none" xmlns="http://www.w3.org/2000/svg">
<g clip-path="url(#clip0_1_4)">
<path fill-rule="evenodd" clip-rule="evenodd" d="M9.16168 3H18.8388C19.3659 2.99998 19.8206 2.99997 20.1951 3.03363C20.5904 3.06917 20.9835 3.14764 21.3618 3.35968C21.9259 3.67583 22.3854 4.18048 22.6732 4.80186C22.8661 5.21819 22.9373 5.65085 22.9696 6.08567C23 6.49697 23 6.99627 23 7.57485V20.4253C23 21.0038 23 21.5031 22.9696 21.9144C22.9373 22.3492 22.8661 22.7819 22.6732 23.1982C22.3854 23.8196 21.9258 24.3242 21.3618 24.6403C20.9835 24.8523 20.5904 24.9308 20.1951 24.9663C19.8205 25 19.3657 25 18.8384 25H9.16209C8.63473 25 8.17973 25 7.80496 24.9663C7.40959 24.9308 7.01623 24.8524 6.63781 24.6403C6.07311 24.3238 5.61449 23.8188 5.32698 23.1982C5.13419 22.782 5.06287 22.3494 5.03057 21.9145C4.99997 21.5025 4.99998 21.0023 5 20.4225V7.57762C4.99998 6.99775 4.99997 6.49752 5.03057 6.08549C5.06287 5.65062 5.13419 5.21807 5.32698 4.80186C5.61447 4.1812 6.07306 3.6762 6.63781 3.35968C7.01625 3.14758 7.40962 3.06915 7.80499 3.03363C8.17965 2.99997 8.63451 2.99998 9.16168 3ZM7.9678 5.22632C7.69595 5.25075 7.59517 5.29221 7.54579 5.3199C7.35789 5.42521 7.205 5.59337 7.109 5.80063C7.0838 5.85503 7.04612 5.96582 7.02393 6.26465C7.00078 6.57631 7 6.98581 7 7.62001V20.38C7 21.0143 7.00078 21.4237 7.02393 21.7354C7.04612 22.0342 7.0838 22.145 7.109 22.1994C7.20498 22.4066 7.35784 22.5747 7.54579 22.6801C7.59519 22.7077 7.69598 22.7492 7.96782 22.7737C8.25127 22.7991 8.62367 22.8 9.2002 22.8H18.8002C19.3767 22.8 19.7489 22.7991 20.0321 22.7737C20.3036 22.7493 20.4043 22.7078 20.4538 22.6801C20.6424 22.5744 20.7956 22.4059 20.8912 22.1994C20.9164 22.1451 20.954 22.0344 20.9762 21.7355C20.9993 21.4238 21 21.0144 21 20.38V7.62001C21 6.9857 20.9993 6.57621 20.9762 6.26447C20.954 5.96558 20.9164 5.85491 20.8912 5.80063C20.7956 5.59411 20.6424 5.42559 20.4538 5.3199C20.4043 5.29215 20.3036 5.25073 20.0321 5.22632C19.7489 5.20086 19.3768 5.2 18.8002 5.2H9.2002C8.62365 5.2 8.25126 5.20086 7.9678 5.22632ZM13 7.4C13 6.79249 13.4477 6.3 14 6.3H14.002C14.2713 6.3 14.5292 6.41945 14.7173 6.63132C14.9055 6.84319 15.008 7.12959 15.0017 7.4257V7.4279C14.9891 8.02216 14.5495 8.49789 14.0092 8.50218L14.0072 8.50219C13.7407 8.5043 13.4845 8.38934 13.2954 8.18283C13.1063 7.97632 13 7.69533 13 7.40222V7.4Z" fill="#051B43"/>
</g>
<defs>
<clipPath id="clip0_1_4">
<rect width="28" height="28" fill="white"/>
</clipPath>
</defs>
</svg>
