<svg width="18" height="28" viewBox="0 0 18 28" fill="none" xmlns="http://www.w3.org/2000/svg">
<g clip-path="url(#clip0_1_8)">
<mask id="mask0_1_8" style="mask-type:luminance" maskUnits="userSpaceOnUse" x="-5" y="0" width="28" height="28">
<path d="M23 0H-5V28H23V0Z" fill="white"/>
</mask>
<g mask="url(#mask0_1_8)">
<path fill-rule="evenodd" clip-rule="evenodd" d="M4.16168 3H13.8388C14.3659 2.99998 14.8206 2.99997 15.1951 3.03363C15.5904 3.06917 15.9835 3.14764 16.3618 3.35968C16.9259 3.67583 17.3854 4.18048 17.6732 4.80186C17.8661 5.21819 17.9373 5.65085 17.9696 6.08567C18 6.49697 18 6.99627 18 7.57485V20.4253C18 21.0038 18 21.5031 17.9696 21.9144C17.9373 22.3492 17.8661 22.7819 17.6732 23.1982C17.3854 23.8196 16.9258 24.3242 16.3618 24.6403C15.9835 24.8523 15.5904 24.9308 15.1951 24.9663C14.8205 25 14.3657 25 13.8384 25H4.16209C3.63473 25 3.17973 25 2.80496 24.9663C2.40959 24.9308 2.01623 24.8524 1.63781 24.6403C1.07311 24.3238 0.614491 23.8188 0.326981 23.1982C0.134191 22.782 0.062871 22.3494 0.030571 21.9145C-2.8966e-05 21.5025 -1.89968e-05 21.0023 1.0032e-06 20.4225V7.57762C-1.89968e-05 6.99775 -2.8966e-05 6.49752 0.030571 6.08549C0.062871 5.65062 0.134191 5.21807 0.326981 4.80186C0.614471 4.1812 1.07306 3.6762 1.63781 3.35968C2.01625 3.14758 2.40962 3.06915 2.80499 3.03363C3.17965 2.99997 3.63451 2.99998 4.16168 3ZM2.9678 5.22632C2.69595 5.25075 2.59517 5.29221 2.54579 5.3199C2.35789 5.42521 2.205 5.59337 2.109 5.80063C2.0838 5.85503 2.04612 5.96582 2.02393 6.26465C2.00078 6.57631 2 6.98581 2 7.62001V20.38C2 21.0143 2.00078 21.4237 2.02393 21.7354C2.04612 22.0342 2.0838 22.145 2.109 22.1994C2.20498 22.4066 2.35784 22.5747 2.54579 22.6801C2.59519 22.7077 2.69598 22.7492 2.96782 22.7737C3.25127 22.7991 3.62367 22.8 4.2002 22.8H13.8002C14.3767 22.8 14.7489 22.7991 15.0321 22.7737C15.3036 22.7493 15.4043 22.7078 15.4538 22.6801C15.6424 22.5744 15.7956 22.4059 15.8912 22.1994C15.9164 22.1451 15.954 22.0344 15.9762 21.7355C15.9993 21.4238 16 21.0144 16 20.38V7.62001C16 6.9857 15.9993 6.57621 15.9762 6.26447C15.954 5.96558 15.9164 5.85491 15.8912 5.80063C15.7956 5.59411 15.6424 5.42559 15.4538 5.3199C15.4043 5.29215 15.3036 5.25073 15.0321 5.22632C14.7489 5.20086 14.3768 5.2 13.8002 5.2H4.2002C3.62365 5.2 3.25126 5.20086 2.9678 5.22632ZM8 7.4C8 6.79249 8.4477 6.3 9 6.3H9.002C9.2713 6.3 9.5292 6.41945 9.7173 6.63132C9.9055 6.84319 10.008 7.12959 10.0017 7.4257V7.4279C9.9891 8.02216 9.5495 8.49789 9.0092 8.50218L9.0072 8.50219C8.7407 8.5043 8.4845 8.38934 8.2954 8.18283C8.1063 7.97632 8 7.69533 8 7.40222V7.4Z" fill="#051B43"/>
</g>
</g>
<defs>
<clipPath id="clip0_1_8">
<rect width="18" height="28" fill="white"/>
</clipPath>
</defs>
</svg>
