<svg width="50" height="50" viewBox="0 0 50 50" fill="none" xmlns="http://www.w3.org/2000/svg">
<path d="M29.6875 28.9062H19.5312C18.2368 28.9062 17.1875 29.9556 17.1875 31.25V46.875C17.1875 48.1694 18.2368 49.2188 19.5312 49.2188H29.6875C30.9819 49.2188 32.0312 48.1694 32.0312 46.875V31.25C32.0312 29.9556 30.9819 28.9062 29.6875 28.9062Z" fill="#EAE0F4"/>
<path d="M29.6875 16.4062H19.5312C18.2368 16.4062 17.1875 17.4556 17.1875 18.75V25C17.1875 26.2944 18.2368 27.3438 19.5312 27.3438H29.6875C30.9819 27.3438 32.0312 26.2944 32.0312 25V18.75C32.0312 17.4556 30.9819 16.4062 29.6875 16.4062Z" fill="#EAE0F4"/>
<path d="M46.0938 16.4062H35.9375C34.6431 16.4062 33.5938 17.4556 33.5938 18.75V34.375C33.5938 35.6694 34.6431 36.7188 35.9375 36.7188H46.0938C47.3882 36.7188 48.4375 35.6694 48.4375 34.375V18.75C48.4375 17.4556 47.3882 16.4062 46.0938 16.4062Z" fill="#EAE0F4"/>
<path d="M46.0938 38.2812H35.9375C34.6431 38.2812 33.5938 39.3306 33.5938 40.625V46.875C33.5938 48.1694 34.6431 49.2188 35.9375 49.2188H46.0938C47.3882 49.2188 48.4375 48.1694 48.4375 46.875V40.625C48.4375 39.3306 47.3882 38.2812 46.0938 38.2812Z" fill="#EAE0F4"/>
<path d="M35.1562 0.78125H3.90625C3.28486 0.781928 2.68911 1.02908 2.24972 1.46847C1.81033 1.90786 1.56318 2.50361 1.5625 3.125V31.25C1.56318 31.8714 1.81033 32.4671 2.24972 32.9065C2.68911 33.3459 3.28486 33.5931 3.90625 33.5938H35.1562C35.7776 33.5931 36.3734 33.3459 36.8128 32.9065C37.2522 32.4671 37.4993 31.8714 37.5 31.25V3.125C37.4993 2.50361 37.2522 1.90786 36.8128 1.46847C36.3734 1.02908 35.7776 0.781928 35.1562 0.78125ZM3.90625 2.34375H35.1562C35.3634 2.34389 35.562 2.42624 35.7085 2.57273C35.855 2.71921 35.9374 2.91784 35.9375 3.125V7.03125H3.125V3.125C3.12514 2.91784 3.20749 2.71921 3.35398 2.57273C3.50046 2.42624 3.69909 2.34389 3.90625 2.34375ZM11.7188 32.0312H7.03125V25H11.7188V32.0312ZM21.875 32.0312H17.1875V25H21.875V32.0312ZM32.0312 32.0312H27.3438V25H32.0312V32.0312ZM35.1562 32.0312H33.5938V25C33.5932 24.5858 33.4284 24.1886 33.1355 23.8957C32.8426 23.6028 32.4455 23.438 32.0312 23.4375H27.3438C26.9295 23.438 26.5324 23.6028 26.2395 23.8957C25.9466 24.1886 25.7818 24.5858 25.7812 25V32.0312H23.4375V25C23.437 24.5858 23.2722 24.1886 22.9793 23.8957C22.6864 23.6028 22.2892 23.438 21.875 23.4375H17.1875C16.7733 23.438 16.3761 23.6028 16.0832 23.8957C15.7903 24.1886 15.6255 24.5858 15.625 25V32.0312H13.2812V25C13.2807 24.5858 13.1159 24.1886 12.823 23.8957C12.5301 23.6028 12.133 23.438 11.7188 23.4375H7.03125C6.61701 23.438 6.2199 23.6028 5.92699 23.8957C5.63408 24.1886 5.46929 24.5858 5.46875 25V32.0312H3.90625C3.69909 32.0311 3.50046 31.9488 3.35398 31.8023C3.20749 31.6558 3.12514 31.4572 3.125 31.25V8.59375H35.9375V31.25C35.9374 31.4572 35.855 31.6558 35.7085 31.8023C35.562 31.9488 35.3634 32.0311 35.1562 32.0312Z" fill="#151A6A"/>
<path d="M14.0625 5.46875H32.8125C33.0197 5.46875 33.2184 5.38644 33.3649 5.23993C33.5114 5.09341 33.5938 4.8947 33.5938 4.6875C33.5938 4.4803 33.5114 4.28159 33.3649 4.13507C33.2184 3.98856 33.0197 3.90625 32.8125 3.90625H14.0625C13.8553 3.90625 13.6566 3.98856 13.5101 4.13507C13.3636 4.28159 13.2812 4.4803 13.2812 4.6875C13.2812 4.8947 13.3636 5.09341 13.5101 5.23993C13.6566 5.38644 13.8553 5.46875 14.0625 5.46875Z" fill="#151A6A"/>
<path d="M6.25781 5.46875H7.03143C7.23863 5.46875 7.43734 5.38644 7.58386 5.23993C7.73037 5.09341 7.81268 4.8947 7.81268 4.6875C7.81268 4.4803 7.73037 4.28159 7.58386 4.13507C7.43734 3.98856 7.23863 3.90625 7.03143 3.90625H6.25781C6.05061 3.90625 5.8519 3.98856 5.70539 4.13507C5.55887 4.28159 5.47656 4.4803 5.47656 4.6875C5.47656 4.8947 5.55887 5.09341 5.70539 5.23993C5.8519 5.38644 6.05061 5.46875 6.25781 5.46875Z" fill="#151A6A"/>
<path d="M10.1641 5.46875H10.9377C11.1449 5.46875 11.3436 5.38644 11.4901 5.23993C11.6366 5.09341 11.7189 4.8947 11.7189 4.6875C11.7189 4.4803 11.6366 4.28159 11.4901 4.13507C11.3436 3.98856 11.1449 3.90625 10.9377 3.90625H10.1641C9.95686 3.90625 9.75815 3.98856 9.61163 4.13507C9.46512 4.28159 9.38281 4.4803 9.38281 4.6875C9.38281 4.8947 9.46512 5.09341 9.61163 5.23993C9.75815 5.38644 9.95686 5.46875 10.1641 5.46875Z" fill="#151A6A"/>
<path d="M32.0312 10.9375H7.03125C6.61701 10.938 6.2199 11.1028 5.92699 11.3957C5.63408 11.6886 5.46929 12.0858 5.46875 12.5V19.5312C5.46929 19.9455 5.63408 20.3426 5.92699 20.6355C6.2199 20.9284 6.61701 21.0932 7.03125 21.0938H32.0312C32.4455 21.0932 32.8426 20.9284 33.1355 20.6355C33.4284 20.3426 33.5932 19.9455 33.5938 19.5312V12.5C33.5932 12.0858 33.4284 11.6886 33.1355 11.3957C32.8426 11.1028 32.4455 10.938 32.0312 10.9375ZM7.03125 12.7924L16.9944 16.0156L7.03125 19.2389V12.7924ZM11.202 12.5H27.8613L19.5317 15.1947L11.202 12.5ZM19.5317 16.8365L27.8613 19.5312H11.202L19.5317 16.8365ZM22.069 16.0156L32.0313 12.7926L32.0327 19.239L22.069 16.0156Z" fill="#151A6A"/>
</svg>
