<svg width="51" height="50" viewBox="0 0 51 50" fill="none" xmlns="http://www.w3.org/2000/svg">
<path d="M30.1875 28.9062H20.0312C18.7368 28.9062 17.6875 29.9556 17.6875 31.25V46.875C17.6875 48.1694 18.7368 49.2188 20.0312 49.2188H30.1875C31.4819 49.2188 32.5312 48.1694 32.5312 46.875V31.25C32.5312 29.9556 31.4819 28.9062 30.1875 28.9062Z" fill="#FFF3D3"/>
<path d="M30.1875 16.4062H20.0312C18.7368 16.4062 17.6875 17.4556 17.6875 18.75V25C17.6875 26.2944 18.7368 27.3438 20.0312 27.3438H30.1875C31.4819 27.3438 32.5312 26.2944 32.5312 25V18.75C32.5312 17.4556 31.4819 16.4062 30.1875 16.4062Z" fill="#FFF3D3"/>
<path d="M46.5938 16.4062H36.4375C35.1431 16.4062 34.0938 17.4556 34.0938 18.75V34.375C34.0938 35.6694 35.1431 36.7188 36.4375 36.7188H46.5938C47.8882 36.7188 48.9375 35.6694 48.9375 34.375V18.75C48.9375 17.4556 47.8882 16.4062 46.5938 16.4062Z" fill="#FFF3D3"/>
<path d="M46.5938 38.2812H36.4375C35.1431 38.2812 34.0938 39.3306 34.0938 40.625V46.875C34.0938 48.1694 35.1431 49.2188 36.4375 49.2188H46.5938C47.8882 49.2188 48.9375 48.1694 48.9375 46.875V40.625C48.9375 39.3306 47.8882 38.2812 46.5938 38.2812Z" fill="#FFF3D3"/>
<path d="M35.6562 0.78125H4.40625C3.78486 0.781928 3.18911 1.02908 2.74972 1.46847C2.31033 1.90786 2.06318 2.50361 2.0625 3.125V31.25C2.06318 31.8714 2.31033 32.4671 2.74972 32.9065C3.18911 33.3459 3.78486 33.5931 4.40625 33.5938H35.6562C36.2776 33.5931 36.8734 33.3459 37.3128 32.9065C37.7522 32.4671 37.9993 31.8714 38 31.25V3.125C37.9993 2.50361 37.7522 1.90786 37.3128 1.46847C36.8734 1.02908 36.2776 0.781928 35.6562 0.78125ZM4.40625 2.34375H35.6562C35.8634 2.34389 36.062 2.42624 36.2085 2.57273C36.355 2.71921 36.4374 2.91784 36.4375 3.125V7.03125H3.625V3.125C3.62514 2.91784 3.70749 2.71921 3.85398 2.57273C4.00046 2.42624 4.19909 2.34389 4.40625 2.34375ZM12.2188 32.0312H7.53125V25H12.2188V32.0312ZM22.375 32.0312H17.6875V25H22.375V32.0312ZM32.5312 32.0312H27.8438V25H32.5312V32.0312ZM35.6562 32.0312H34.0938V25C34.0932 24.5858 33.9284 24.1886 33.6355 23.8957C33.3426 23.6028 32.9455 23.438 32.5312 23.4375H27.8438C27.4295 23.438 27.0324 23.6028 26.7395 23.8957C26.4466 24.1886 26.2818 24.5858 26.2812 25V32.0312H23.9375V25C23.937 24.5858 23.7722 24.1886 23.4793 23.8957C23.1864 23.6028 22.7892 23.438 22.375 23.4375H17.6875C17.2733 23.438 16.8761 23.6028 16.5832 23.8957C16.2903 24.1886 16.1255 24.5858 16.125 25V32.0312H13.7812V25C13.7807 24.5858 13.6159 24.1886 13.323 23.8957C13.0301 23.6028 12.633 23.438 12.2188 23.4375H7.53125C7.11701 23.438 6.7199 23.6028 6.42699 23.8957C6.13408 24.1886 5.96929 24.5858 5.96875 25V32.0312H4.40625C4.19909 32.0311 4.00046 31.9488 3.85398 31.8023C3.70749 31.6558 3.62514 31.4572 3.625 31.25V8.59375H36.4375V31.25C36.4374 31.4572 36.355 31.6558 36.2085 31.8023C36.062 31.9488 35.8634 32.0311 35.6562 32.0312Z" fill="#151A6A"/>
<path d="M14.5625 5.46875H33.3125C33.5197 5.46875 33.7184 5.38644 33.8649 5.23993C34.0114 5.09341 34.0938 4.8947 34.0938 4.6875C34.0938 4.4803 34.0114 4.28159 33.8649 4.13507C33.7184 3.98856 33.5197 3.90625 33.3125 3.90625H14.5625C14.3553 3.90625 14.1566 3.98856 14.0101 4.13507C13.8636 4.28159 13.7812 4.4803 13.7812 4.6875C13.7812 4.8947 13.8636 5.09341 14.0101 5.23993C14.1566 5.38644 14.3553 5.46875 14.5625 5.46875Z" fill="#151A6A"/>
<path d="M6.75781 5.46875H7.53143C7.73863 5.46875 7.93734 5.38644 8.08386 5.23993C8.23037 5.09341 8.31268 4.8947 8.31268 4.6875C8.31268 4.4803 8.23037 4.28159 8.08386 4.13507C7.93734 3.98856 7.73863 3.90625 7.53143 3.90625H6.75781C6.55061 3.90625 6.3519 3.98856 6.20539 4.13507C6.05887 4.28159 5.97656 4.4803 5.97656 4.6875C5.97656 4.8947 6.05887 5.09341 6.20539 5.23993C6.3519 5.38644 6.55061 5.46875 6.75781 5.46875Z" fill="#151A6A"/>
<path d="M10.6641 5.46875H11.4377C11.6449 5.46875 11.8436 5.38644 11.9901 5.23993C12.1366 5.09341 12.2189 4.8947 12.2189 4.6875C12.2189 4.4803 12.1366 4.28159 11.9901 4.13507C11.8436 3.98856 11.6449 3.90625 11.4377 3.90625H10.6641C10.4569 3.90625 10.2581 3.98856 10.1116 4.13507C9.96512 4.28159 9.88281 4.4803 9.88281 4.6875C9.88281 4.8947 9.96512 5.09341 10.1116 5.23993C10.2581 5.38644 10.4569 5.46875 10.6641 5.46875Z" fill="#151A6A"/>
<path d="M32.5312 10.9375H7.53125C7.11701 10.938 6.7199 11.1028 6.42699 11.3957C6.13408 11.6886 5.96929 12.0858 5.96875 12.5V19.5312C5.96929 19.9455 6.13408 20.3426 6.42699 20.6355C6.7199 20.9284 7.11701 21.0932 7.53125 21.0938H32.5312C32.9455 21.0932 33.3426 20.9284 33.6355 20.6355C33.9284 20.3426 34.0932 19.9455 34.0938 19.5312V12.5C34.0932 12.0858 33.9284 11.6886 33.6355 11.3957C33.3426 11.1028 32.9455 10.938 32.5312 10.9375ZM7.53125 12.7924L17.4944 16.0156L7.53125 19.2389V12.7924ZM11.702 12.5H28.3613L20.0317 15.1947L11.702 12.5ZM20.0317 16.8365L28.3613 19.5312H11.702L20.0317 16.8365ZM22.569 16.0156L32.5313 12.7926L32.5327 19.239L22.569 16.0156Z" fill="#151A6A"/>
</svg>
