<svg width="120" height="97" viewBox="0 0 120 97" fill="none" xmlns="http://www.w3.org/2000/svg">
<path d="M35.328 96.5C10.88 96.5 0 72.3955 0 48.4303C0 24.4652 10.88 0.5 35.328 0.5C59.648 0.5 70.656 24.4652 70.656 48.4303C70.656 72.3955 59.648 96.5 35.328 96.5ZM35.328 78.9441C47.488 78.9441 52.096 65.5682 52.096 48.4303C52.096 31.2925 47.488 18.0559 35.328 18.0559C23.04 18.0559 18.432 31.2925 18.432 48.4303C18.432 65.5682 23.04 78.9441 35.328 78.9441Z" fill="#E5ECFC"/>
<path d="M119.183 94.828H101.007V27.3911L86.799 43.1357L76.431 31.2925L103.311 1.89332H119.183V94.828Z" fill="#E5ECFC"/>
</svg>
