<svg width="120" height="97" viewBox="0 0 120 97" fill="none" xmlns="http://www.w3.org/2000/svg">
<path d="M28.979 96.5C8.92468 96.5 0 72.3955 0 48.4303C0 24.4652 8.92468 0.5 28.979 0.5C48.9282 0.5 57.9579 24.4652 57.9579 48.4303C57.9579 72.3955 48.9282 96.5 28.979 96.5ZM28.979 78.9441C38.9536 78.9441 42.7335 65.5682 42.7335 48.4303C42.7335 31.2925 38.9536 18.0559 28.979 18.0559C18.8993 18.0559 15.1195 31.2925 15.1195 48.4303C15.1195 65.5682 18.8993 78.9441 28.979 78.9441Z" fill="#E5ECFC"/>
<path d="M119.183 94.828H66.4749V79.3621C95.1389 51.217 103.539 41.603 103.539 30.1778C103.539 22.0965 97.9738 18.0559 92.199 18.0559C84.2193 18.0559 78.1295 22.2358 73.4047 28.7845L64.9 15.6872C71.7247 5.23731 82.1193 0.5 91.884 0.5C106.793 0.5 118.658 11.6466 118.658 30.1778C118.658 46.0617 108.788 59.8556 90.624 77.4115H119.183V94.828Z" fill="#E5ECFC"/>
</svg>
