<svg width="120" height="97" viewBox="0 0 120 97" fill="none" xmlns="http://www.w3.org/2000/svg">
<path d="M29.0557 96.5C8.94833 96.5 0 72.3955 0 48.4303C0 24.4652 8.94833 0.5 29.0557 0.5C49.0579 0.5 58.1115 24.4652 58.1115 48.4303C58.1115 72.3955 49.0579 96.5 29.0557 96.5ZM29.0557 78.9441C39.0568 78.9441 42.8467 65.5682 42.8467 48.4303C42.8467 31.2925 39.0568 18.0559 29.0557 18.0559C18.9494 18.0559 15.1595 31.2925 15.1595 48.4303C15.1595 65.5682 18.9494 78.9441 29.0557 78.9441Z" fill="#E5ECFC"/>
<path d="M91.4958 96.5C78.5471 96.5 68.9671 89.9514 63.8087 81.5914L71.599 68.3549C76.4416 75.0428 84.1266 78.9441 90.9695 78.9441C99.4967 78.9441 104.234 74.0675 104.234 67.1009C104.234 59.7163 99.9178 56.3723 90.1273 56.3723C87.1796 56.3723 82.4422 56.5116 81.3895 56.6509V38.8164C82.6528 38.9557 87.4954 38.9557 90.1273 38.9557C97.9176 38.9557 103.076 35.8904 103.076 29.0631C103.076 21.6785 97.3912 18.0559 90.022 18.0559C83.2844 18.0559 77.1785 21.3999 72.2306 27.6698L64.7561 15.2692C70.4409 6.76996 79.284 0.5 91.6011 0.5C108.024 0.5 118.13 10.2533 118.13 25.7192C118.13 37.4231 110.551 45.0864 102.76 46.8977C109.919 47.873 119.183 55.2576 119.183 69.1909C119.183 85.2141 108.34 96.5 91.4958 96.5Z" fill="#E5ECFC"/>
</svg>
