<svg width="120" height="96" viewBox="0 0 120 96" fill="none" xmlns="http://www.w3.org/2000/svg">
<path d="M28.4034 96C8.74744 96 0 71.8955 0 47.9303C0 23.9652 8.74744 0 28.4034 0C47.9565 0 56.8069 23.9652 56.8069 47.9303C56.8069 71.8955 47.9565 96 28.4034 96ZM28.4034 78.4441C38.18 78.4441 41.8848 65.0682 41.8848 47.9303C41.8848 30.7925 38.18 17.5559 28.4034 17.5559C18.524 17.5559 14.8192 30.7925 14.8192 47.9303C14.8192 65.0682 18.524 78.4441 28.4034 78.4441Z" fill="#E5ECFC"/>
<path d="M110.333 94.328H95.7193V75.1001H62.8907V59.4949L90.1621 1.39332H110.333V57.6836H119.183V75.1001H110.333V94.328ZM95.7193 57.6836V18.9492L77.1953 57.6836H95.7193Z" fill="#E5ECFC"/>
</svg>
