<svg width="120" height="97" viewBox="0 0 120 97" fill="none" xmlns="http://www.w3.org/2000/svg">
<path d="M28.3789 96.5C8.73989 96.5 0 72.3955 0 48.4303C0 24.4652 8.73989 0.5 28.3789 0.5C47.9152 0.5 56.7579 24.4652 56.7579 48.4303C56.7579 72.3955 47.9152 96.5 28.3789 96.5ZM28.3789 78.9441C38.147 78.9441 41.8486 65.5682 41.8486 48.4303C41.8486 31.2925 38.147 18.0559 28.3789 18.0559C18.508 18.0559 14.8064 31.2925 14.8064 48.4303C14.8064 65.5682 18.508 78.9441 28.3789 78.9441Z" fill="#E5ECFC"/>
<path d="M91.7295 96.5C79.8021 96.5 71.165 91.2054 65.3042 82.5668L73.4271 68.7729C78.0541 75.3215 84.4291 78.9441 91.6267 78.9441C99.7496 78.9441 104.377 72.6742 104.377 65.1502C104.377 56.9296 99.8524 51.3563 92.0379 51.3563C86.3827 51.3563 81.7557 53.5856 77.6428 58.8803L67.4634 55.2576V1.89332H114.556V19.3099H82.0642V42.021C85.3545 37.5624 90.9069 34.2184 97.1791 34.2184C108.798 34.2184 119.183 45.5044 119.183 64.3142C119.183 84.0994 108.284 96.5 91.7295 96.5Z" fill="#E5ECFC"/>
</svg>
