<svg width="120" height="97" viewBox="0 0 120 97" fill="none" xmlns="http://www.w3.org/2000/svg">
<path d="M28.2813 96.5C8.70983 96.5 0 72.3955 0 48.4303C0 24.4652 8.70983 0.5 28.2813 0.5C47.7504 0.5 56.5627 24.4652 56.5627 48.4303C56.5627 72.3955 47.7504 96.5 28.2813 96.5ZM28.2813 78.9441C38.0159 78.9441 41.7047 65.5682 41.7047 48.4303C41.7047 31.2925 38.0159 18.0559 28.2813 18.0559C18.4444 18.0559 14.7555 31.2925 14.7555 48.4303C14.7555 65.5682 18.4444 78.9441 28.2813 78.9441Z" fill="#E5ECFC"/>
<path d="M93.0535 96.5C72.2524 96.5 63.5425 74.7641 63.5425 48.5697C63.5425 20.4245 75.224 0.5 95.4103 0.5C103.71 0.5 110.678 4.40131 115.597 10.1139L109.039 25.3012C105.35 20.5639 101.456 18.0559 95.4103 18.0559C85.3684 18.0559 78.298 29.6205 78.298 44.3897C78.298 45.0864 78.298 45.6437 78.4005 46.3403C81.577 40.0704 88.4424 34.3578 95.9226 34.3578C108.219 34.3578 119.183 44.8077 119.183 64.5929C119.183 82.7061 108.629 96.5 93.0535 96.5ZM92.2338 78.9441C100.124 78.9441 104.428 71.8382 104.428 65.2895C104.428 55.5363 98.2794 51.3563 91.7214 51.3563C86.598 51.3563 81.6795 54.561 78.4005 60.1343C79.0153 69.0515 82.7042 78.9441 92.2338 78.9441Z" fill="#E5ECFC"/>
</svg>
