<svg width="120" height="97" viewBox="0 0 120 97" fill="none" xmlns="http://www.w3.org/2000/svg">
<path d="M29.6049 96.5C9.11745 96.5 0 72.3955 0 48.4303C0 24.4652 9.11745 0.5 29.6049 0.5C49.9851 0.5 59.2098 24.4652 59.2098 48.4303C59.2098 72.3955 49.9851 96.5 29.6049 96.5ZM29.6049 78.9441C39.795 78.9441 43.6565 65.5682 43.6565 48.4303C43.6565 31.2925 39.795 18.0559 29.6049 18.0559C19.3075 18.0559 15.446 31.2925 15.446 48.4303C15.446 65.5682 19.3075 78.9441 29.6049 78.9441Z" fill="#E5ECFC"/>
<path d="M92.5815 94.828H75.8483L101.484 19.3099H65.4437V1.89332H119.183V15.6872L92.5815 94.828Z" fill="#E5ECFC"/>
</svg>
