<svg width="120" height="97" viewBox="0 0 120 97" fill="none" xmlns="http://www.w3.org/2000/svg">
<path d="M28.428 96.5C8.75499 96.5 0 72.3955 0 48.4303C0 24.4652 8.75499 0.5 28.428 0.5C47.998 0.5 56.856 24.4652 56.856 48.4303C56.856 72.3955 47.998 96.5 28.428 96.5ZM28.428 78.9441C38.213 78.9441 41.921 65.5682 41.921 48.4303C41.921 31.2925 38.213 18.0559 28.428 18.0559C18.54 18.0559 14.832 31.2925 14.832 48.4303C14.832 65.5682 18.54 78.9441 28.428 78.9441Z" fill="#E5ECFC"/>
<path d="M91.579 96.5C77.159 96.5 63.975 88.1401 63.975 70.7235C63.975 59.4376 70.464 50.799 78.704 46.8977C71.082 43.275 65.108 36.5871 65.108 25.0225C65.108 7.60595 78.807 0.5 91.579 0.5C104.248 0.5 118.05 7.60595 118.05 25.0225C118.05 36.5871 111.973 43.275 104.351 46.8977C112.591 50.799 119.183 59.4376 119.183 70.7235C119.183 88.0007 105.999 96.5 91.579 96.5ZM91.579 39.0951C95.802 38.2591 103.115 35.0544 103.115 28.0878C103.115 21.3999 98.274 17.4986 91.579 17.4986C84.781 17.4986 79.94 21.3999 79.94 28.0878C79.94 35.0544 87.356 38.2591 91.579 39.0951ZM91.579 79.5014C98.583 79.5014 104.351 75.0428 104.351 68.2155C104.351 60.4129 95.802 56.6509 91.579 55.8149C87.253 56.6509 78.807 60.4129 78.807 68.2155C78.807 75.0428 84.369 79.5014 91.579 79.5014Z" fill="#E5ECFC"/>
</svg>
