<svg width="463" height="154" viewBox="0 0 463 154" fill="none" xmlns="http://www.w3.org/2000/svg">
<g clip-path="url(#clip0_1301_3102)">
<path d="M307.244 76.6784L276.062 23.1001C274.724 20.7998 272.798 18.8895 270.48 17.5614C268.161 16.2334 265.53 15.5342 262.853 15.5342H200.49C197.813 15.5342 195.182 16.2334 192.864 17.5614C190.545 18.8895 188.619 20.7998 187.281 23.1001L156.099 76.6784C154.76 78.9787 154.056 81.588 154.056 84.2442C154.056 86.9003 154.76 89.5098 156.099 91.8101L187.281 145.388C188.619 147.689 190.545 149.599 192.864 150.927C195.182 152.255 197.813 152.954 200.49 152.954H262.853C265.53 152.954 268.161 152.255 270.479 150.927C272.798 149.599 274.724 147.689 276.062 145.388L307.244 91.8101C308.583 89.5098 309.287 86.9005 309.287 84.2443C309.287 81.5882 308.583 78.9787 307.244 76.6784Z" fill="white"/>
<path d="M262.565 28.3661L178.794 89.7674C178.12 90.2612 178.212 91.325 178.923 91.2617L225.051 95.6197L251.919 133.071C252.219 133.713 253.193 133.26 253.288 132.434L265.004 29.7631C265.086 29.4557 265.064 29.13 264.941 28.8363C264.818 28.5426 264.601 28.2973 264.324 28.1383C264.046 27.9793 263.723 27.9153 263.405 27.9565C263.087 27.9977 262.792 28.1417 262.565 28.3661Z" fill="#10C48D"/>
<path d="M268.723 17.7926L184.952 79.1939C184.279 79.6877 184.37 80.7515 185.081 80.6882L231.209 85.0462L258.077 122.497C258.378 123.14 259.352 122.687 259.446 121.861L271.162 19.1896C271.245 18.8822 271.223 18.5564 271.1 18.2626C270.977 17.9689 270.76 17.7235 270.482 17.5644C270.204 17.4054 269.882 17.3416 269.564 17.3828C269.246 17.4241 268.95 17.5681 268.723 17.7926Z" fill="#051B43"/>
<path d="M215.329 114.001L215.204 119.393C215.199 119.576 215.248 119.757 215.344 119.913L218.171 124.52C218.261 124.667 218.309 124.835 218.311 125.007C218.313 125.179 218.269 125.348 218.182 125.497C218.095 125.646 217.97 125.769 217.819 125.853C217.668 125.937 217.497 125.98 217.323 125.976L211.888 125.851C211.704 125.847 211.522 125.895 211.364 125.99L206.72 128.794C206.572 128.884 206.403 128.932 206.23 128.934C206.056 128.936 205.886 128.891 205.736 128.805C205.586 128.72 205.462 128.595 205.377 128.445C205.292 128.295 205.249 128.126 205.253 127.954L205.379 122.562C205.383 122.379 205.334 122.199 205.238 122.042L202.412 117.435C202.322 117.288 202.274 117.12 202.272 116.948C202.27 116.776 202.314 116.607 202.401 116.458C202.487 116.31 202.613 116.187 202.764 116.102C202.915 116.018 203.086 115.976 203.259 115.98L208.694 116.104C208.879 116.109 209.061 116.06 209.218 115.965L213.862 113.161C214.01 113.072 214.18 113.024 214.353 113.022C214.526 113.02 214.697 113.064 214.847 113.15C214.997 113.236 215.121 113.36 215.206 113.51C215.291 113.66 215.333 113.83 215.329 114.001Z" fill="#10C48D"/>
<path d="M247.059 66.2797C251.782 66.2797 255.61 62.4817 255.61 57.7966C255.61 53.1115 251.782 49.3135 247.059 49.3135C242.336 49.3135 238.508 53.1115 238.508 57.7966C238.508 62.4817 242.336 66.2797 247.059 66.2797Z" fill="white"/>
</g>
<path d="M106.235 4.49581V86.7207H119.593C123.693 86.7207 125.743 87.7122 125.743 89.6953V101.168C125.743 105.135 123.693 107.118 119.593 107.118H106.235V153.223H71.2472V107.118H7.84567C3.8875 107.118 1.555 106.693 0.848181 105.843C0.282727 104.993 0 103.435 0 101.168V86.0833L87.3626 3.43347C89.6244 1.45044 93.2999 0.317282 98.389 0.0339959C103.619 -0.249299 106.235 1.23797 106.235 4.49581ZM73.7917 29.3545L12.7227 88.4205H73.7917V29.3545Z" fill="white"/>
<path d="M443.491 4.49581V86.7207H456.85C460.95 86.7207 463 87.7122 463 89.6953V101.168C463 105.135 460.95 107.118 456.85 107.118H443.491V153.223H408.504V107.118H345.103C341.144 107.118 338.812 106.693 338.105 105.843C337.54 104.993 337.257 103.435 337.257 101.168V86.0833L424.619 3.43347C426.881 1.45044 430.557 0.317282 435.646 0.0339959C440.876 -0.249299 443.491 1.23797 443.491 4.49581ZM411.049 29.3545L349.98 88.4205H411.049V29.3545Z" fill="white"/>
<defs>
<clipPath id="clip0_1301_3102">
<rect width="155.721" height="137.401" fill="white" transform="translate(154.056 15.8218)"/>
</clipPath>
</defs>
</svg>
