<svg width="180" height="44" viewBox="0 0 180 44" fill="none" xmlns="http://www.w3.org/2000/svg">
<g clip-path="url(#clip0_1_414)">
<path d="M43.0679 18.247L34.3014 3.06267C33.925 2.41076 33.3837 1.86937 32.7318 1.49299C32.0799 1.11661 31.3404 0.918452 30.5877 0.918457H13.0547C12.302 0.91846 11.5625 1.11661 10.9106 1.49299C10.2587 1.86937 9.71737 2.41076 9.341 3.06267L0.574521 18.247C0.198149 18.8989 0 19.6384 0 20.3911C0 21.1439 0.198149 21.8834 0.574521 22.5353L9.34098 37.7196C9.71735 38.3715 10.2587 38.9129 10.9106 39.2893C11.5625 39.6657 12.302 39.8638 13.0547 39.8639H30.5877C31.3404 39.8638 32.0799 39.6657 32.7318 39.2893C33.3837 38.9129 33.925 38.3715 34.3014 37.7196L43.0679 22.5353C43.4442 21.8834 43.6424 21.144 43.6424 20.3912C43.6424 19.6384 43.4442 18.8989 43.0679 18.247Z" fill="white"/>
<path d="M30.5065 4.55508L6.95486 21.9564C6.76544 22.0964 6.79118 22.3979 6.99102 22.3799L19.9596 23.615L27.5134 34.2288C27.5978 34.4109 27.8718 34.2824 27.8983 34.0484L31.1922 4.951C31.2154 4.86389 31.2092 4.77158 31.1746 4.68834C31.14 4.60511 31.079 4.53558 31.0009 4.49052C30.9229 4.44545 30.8321 4.42733 30.7428 4.439C30.6534 4.45067 30.5704 4.49147 30.5065 4.55508Z" fill="#10C48D"/>
<path d="M32.2383 1.55856L8.68667 18.9599C8.49725 19.0999 8.523 19.4014 8.72284 19.3834L21.6914 20.6185L29.2453 31.2323C29.3297 31.4144 29.6036 31.2859 29.6301 31.0519L32.9241 1.95448C32.9472 1.86736 32.9411 1.77503 32.9065 1.69177C32.8719 1.60852 32.8109 1.53897 32.7328 1.49389C32.6547 1.44882 32.564 1.43074 32.4746 1.44243C32.3852 1.45411 32.3022 1.49493 32.2383 1.55856Z" fill="#051B43"/>
<path d="M17.2264 28.8246L17.191 30.3526C17.1899 30.4045 17.2036 30.4557 17.2305 30.5L18.0252 31.8056C18.0505 31.8472 18.0641 31.8949 18.0647 31.9436C18.0653 31.9923 18.0527 32.0403 18.0283 32.0825C18.004 32.1247 17.9687 32.1595 17.9263 32.1834C17.8838 32.2073 17.8357 32.2192 17.787 32.2181L16.259 32.1828C16.2071 32.1816 16.156 32.1953 16.1116 32.2223L14.806 33.0169C14.7644 33.0422 14.7168 33.0559 14.6681 33.0565C14.6193 33.057 14.5714 33.0445 14.5292 33.0201C14.487 32.9958 14.4521 32.9605 14.4283 32.918C14.4044 32.8756 14.3924 32.8275 14.3935 32.7787L14.4289 31.2507C14.4301 31.1988 14.4164 31.1477 14.3894 31.1034L13.5948 29.7977C13.5695 29.7561 13.5558 29.7084 13.5553 29.6597C13.5547 29.611 13.5672 29.5631 13.5916 29.5209C13.616 29.4787 13.6512 29.4439 13.6937 29.42C13.7361 29.3961 13.7842 29.3841 13.8329 29.3852L15.3609 29.4206C15.4128 29.4218 15.4639 29.4081 15.5083 29.3811L16.8139 28.5865C16.8555 28.5612 16.9032 28.5475 16.9519 28.5469C17.0006 28.5463 17.0485 28.5589 17.0907 28.5832C17.1329 28.6076 17.1678 28.6429 17.1916 28.6853C17.2155 28.7278 17.2275 28.7759 17.2264 28.8246Z" fill="#10C48D"/>
<path d="M26.1476 15.3C27.4753 15.3 28.5517 14.2236 28.5517 12.8959C28.5517 11.5681 27.4753 10.4917 26.1476 10.4917C24.8198 10.4917 23.7435 11.5681 23.7435 12.8959C23.7435 14.2236 24.8198 15.3 26.1476 15.3Z" fill="white"/>
<path d="M64.3485 28.3284C62.7055 28.3454 61.0677 28.1403 59.4795 27.7188C58.2875 27.4032 57.1478 26.9153 56.0967 26.2704C55.9807 26.1965 55.896 26.0824 55.8589 25.95C55.8218 25.8176 55.835 25.6761 55.8957 25.5528L57.3334 22.6083C57.3666 22.5406 57.4132 22.4802 57.4703 22.4309C57.5275 22.3816 57.594 22.3444 57.6659 22.3215C57.7378 22.2986 57.8136 22.2904 57.8888 22.2976C57.9639 22.3047 58.0368 22.327 58.1031 22.3631C59.0041 22.848 59.9526 23.2388 60.9336 23.5294C62.0277 23.8692 63.1654 24.0481 64.3109 24.0607C65.0736 24.0996 65.8355 23.9718 66.5437 23.6862C66.767 23.6037 66.96 23.4555 67.0973 23.2612C67.2346 23.0668 67.3098 22.8354 67.313 22.5975C67.3097 22.3886 67.2396 22.1863 67.113 22.0201C66.9864 21.854 66.8099 21.7328 66.6094 21.6742C65.7158 21.3724 64.7953 21.1565 63.8606 21.0297C61.8404 20.8307 59.899 20.1431 58.2037 19.0264C57.6181 18.5756 57.1495 17.9904 56.8377 17.3204C56.5258 16.6503 56.3797 15.9151 56.4118 15.1767C56.3927 14.0717 56.7574 12.9944 57.4438 12.1283C58.1994 11.2086 59.1874 10.5079 60.3051 10.0989C61.6511 9.5947 63.0803 9.3494 64.5174 9.37597C66.0033 9.3674 67.4834 9.56081 68.9172 9.95083C70.022 10.2439 71.0796 10.6922 72.0585 11.2822C72.1742 11.3549 72.2591 11.4676 72.2972 11.5989C72.3352 11.7301 72.3237 11.8708 72.2649 11.9941L70.8907 14.9065C70.8572 14.9774 70.8092 15.0405 70.7497 15.0916C70.6903 15.1428 70.6207 15.1808 70.5455 15.2033C70.4704 15.2258 70.3913 15.2322 70.3136 15.2222C70.2358 15.2121 70.161 15.1858 70.094 15.1449C69.6931 14.9038 69.2747 14.6932 68.8422 14.5148C68.1726 14.236 67.4785 14.0202 66.7689 13.8703C66.0844 13.7225 65.3865 13.6466 64.6863 13.6439C63.9901 13.6176 63.2962 13.7393 62.6505 14.001C62.4358 14.066 62.2461 14.1951 62.107 14.371C61.9678 14.5469 61.8857 14.7612 61.8718 14.9851C61.8716 15.195 61.9364 15.3998 62.0574 15.5714C62.1783 15.743 62.3495 15.8729 62.5473 15.9432C63.4221 16.2699 64.3272 16.5091 65.2491 16.6575C67.9759 17.1686 69.9084 17.8566 71.0468 18.7216C71.6052 19.1426 72.0525 19.6934 72.3501 20.3263C72.6476 20.9592 72.7863 21.655 72.7542 22.3536C72.7764 23.4956 72.4017 24.6099 71.6941 25.5065C70.9164 26.4518 69.8991 27.1707 68.7484 27.5882C67.3409 28.1078 65.8485 28.3589 64.3485 28.3284Z" fill="white"/>
<path d="M76.7692 34.5965V10.6318C76.7692 10.4833 76.8282 10.3409 76.9332 10.236C77.0381 10.131 77.1805 10.072 77.329 10.072H81.5194C81.6678 10.072 81.8102 10.131 81.9151 10.236C82.0201 10.3409 82.0791 10.4833 82.0791 10.6318V10.8463C82.0789 10.9504 82.1078 11.0524 82.1625 11.141C82.2172 11.2296 82.2956 11.3011 82.3888 11.3475C82.4819 11.3939 82.5862 11.4133 82.6898 11.4036C82.7935 11.3939 82.8924 11.3554 82.9753 11.2925C83.5394 10.8669 84.1557 10.5153 84.8091 10.2462C86.0351 9.75959 87.346 9.52268 88.6649 9.5494C90.3665 9.51937 92.048 9.92093 93.5525 10.7166C94.9663 11.4768 96.1393 12.6172 96.9392 14.0089C97.6498 15.3256 98.0657 16.7811 98.158 18.2744C98.2503 19.7678 98.0169 21.2634 97.474 22.6577C97.0182 23.7817 96.3383 24.8011 95.4757 25.6538C94.6019 26.5144 93.5654 27.1924 92.4268 27.6484C91.1941 28.1363 89.878 28.3789 88.5523 28.3626C87.4966 28.374 86.4466 28.2061 85.447 27.8661C84.856 27.6604 84.2904 27.3879 83.7612 27.054C83.6766 27.0007 83.5793 26.9711 83.4794 26.9682C83.3794 26.9654 83.2806 26.9894 83.1931 27.0378C83.1056 27.0861 83.0327 27.1571 82.982 27.2432C82.9312 27.3294 82.9045 27.4275 82.9046 27.5275V34.5965C82.9046 34.7449 82.8457 34.8872 82.7407 34.9922C82.6357 35.0972 82.4934 35.1562 82.3449 35.1562H77.329C77.1805 35.1562 77.0382 35.0972 76.9332 34.9923C76.8282 34.8873 76.7692 34.745 76.7692 34.5965Z" fill="white"/>
<path d="M117.503 12.6513C116.705 11.5197 115.583 10.6571 114.285 10.1777C112.763 9.61712 111.15 9.3454 109.528 9.37641C108.124 9.38144 106.726 9.55396 105.363 9.89032C104.131 10.1868 102.942 10.64 101.825 11.2386C101.703 11.3039 101.61 11.4118 101.563 11.5416C101.516 11.6714 101.518 11.814 101.57 11.9421L102.711 14.781C102.741 14.8556 102.787 14.9229 102.846 14.9781C102.904 15.0334 102.974 15.0754 103.05 15.1013C103.126 15.1272 103.207 15.1364 103.287 15.1282C103.367 15.1201 103.445 15.0947 103.514 15.054C104.164 14.6805 104.858 14.3883 105.579 14.1842C106.539 13.9067 107.534 13.766 108.534 13.7662C109.376 13.7338 110.215 13.8731 111.001 14.1756C111.563 14.3996 112.037 14.7999 112.352 15.3165C112.618 15.7914 112.761 16.3247 112.77 16.8686C111.137 16.752 109.497 16.7719 107.868 16.9279C106.436 17.0471 105.032 17.3971 103.712 17.9643C102.727 18.3825 101.872 19.056 101.235 19.9153C100.683 20.7124 100.394 21.6629 100.41 22.6328C100.379 23.7255 100.691 24.8004 101.301 25.7074C101.909 26.5723 102.743 27.2533 103.712 27.6757C104.788 28.1474 105.952 28.382 107.127 28.3639C108.381 28.385 109.628 28.1724 110.804 27.7367C111.386 27.5168 111.933 27.2159 112.43 26.8429C112.513 26.778 112.612 26.7376 112.716 26.7263C112.821 26.7149 112.926 26.7332 113.021 26.7789C113.115 26.8246 113.195 26.8959 113.251 26.9848C113.307 27.0737 113.337 27.1765 113.337 27.2815C113.337 27.4299 113.396 27.5723 113.501 27.6773C113.606 27.7823 113.749 27.8412 113.897 27.8412H118.106C118.255 27.8412 118.397 27.7823 118.502 27.6773C118.607 27.5723 118.666 27.4299 118.666 27.2815V16.9366C118.73 15.4223 118.323 13.9254 117.503 12.6513ZM112.249 22.7982C111.885 23.2792 111.394 23.6501 110.832 23.8696C110.197 24.1212 109.518 24.2455 108.834 24.2354C108.123 24.2706 107.416 24.1013 106.798 23.7476C106.557 23.6019 106.359 23.3941 106.226 23.1459C106.092 22.8978 106.027 22.6183 106.039 22.3367C106.035 22.1086 106.082 21.8826 106.176 21.6749C106.27 21.4671 106.409 21.2827 106.583 21.1347C107.03 20.7686 107.562 20.5201 108.131 20.4118C108.932 20.2421 109.751 20.1661 110.57 20.1853C111.307 20.1938 112.043 20.246 112.774 20.3417V21.065C112.794 21.6848 112.61 22.2939 112.249 22.7982Z" fill="white"/>
<path d="M132.606 28.3621C130.723 28.395 128.86 27.9737 127.174 27.134C125.638 26.368 124.333 25.2078 123.393 23.7721C122.464 22.3392 121.981 20.663 122.005 18.9555C121.992 17.6672 122.271 16.3927 122.821 15.2277C123.369 14.0842 124.149 13.067 125.11 12.2402C126.126 11.367 127.297 10.6933 128.562 10.2544C129.94 9.77433 131.391 9.53567 132.85 9.54889C134.214 9.5369 135.572 9.72171 136.884 10.0976C137.909 10.3955 138.884 10.8449 139.776 11.4309C139.898 11.5122 139.983 11.638 140.012 11.781C140.042 11.9241 140.015 12.0732 139.936 12.1963L137.851 15.4758C137.81 15.5398 137.757 15.5948 137.695 15.6375C137.632 15.6802 137.561 15.7097 137.487 15.7243C137.413 15.7389 137.336 15.7382 137.262 15.7222C137.188 15.7063 137.118 15.6755 137.056 15.6316C136.58 15.2929 136.057 15.0248 135.505 14.8358C134.764 14.5848 133.988 14.4582 133.206 14.4612C132.271 14.4379 131.343 14.6193 130.486 14.9926C129.759 15.3145 129.148 15.8489 128.731 16.5254C128.308 17.2574 128.097 18.0928 128.122 18.9381C128.088 19.5575 128.193 20.1766 128.428 20.7506C128.663 21.3245 129.023 21.8389 129.482 22.2565C130.539 23.103 131.873 23.5281 133.225 23.4497C134.752 23.4633 136.24 22.9696 137.456 22.0461C137.52 21.9976 137.593 21.9632 137.67 21.945C137.748 21.9269 137.828 21.9255 137.906 21.9409C137.985 21.9563 138.059 21.9882 138.124 22.0344C138.189 22.0806 138.243 22.1401 138.283 22.209L140.184 25.5001C140.257 25.6252 140.278 25.7737 140.244 25.9143C140.209 26.0549 140.122 26.1766 139.999 26.254C138.988 26.8798 137.9 27.3718 136.762 27.7176C135.417 28.1413 134.016 28.3587 132.606 28.3621Z" fill="white"/>
<path d="M152.701 28.3623C150.787 28.4029 148.889 28.0005 147.156 27.1865C145.631 26.464 144.342 25.322 143.441 23.8942C142.68 22.5798 142.234 21.1069 142.138 19.5912C142.042 18.0755 142.299 16.5581 142.888 15.1582C143.392 14.0208 144.134 13.005 145.064 12.1794C146.033 11.3253 147.157 10.6658 148.376 10.2372C149.723 9.76547 151.142 9.53262 152.569 9.54907C154.104 9.5226 155.629 9.8039 157.054 10.3765C158.302 10.8818 159.416 11.6687 160.309 12.6758C161.172 13.6704 161.781 14.8601 162.082 16.1423C162.377 17.407 162.417 18.7176 162.202 19.9981C162.181 20.13 162.114 20.2502 162.012 20.3369C161.911 20.4236 161.782 20.4712 161.648 20.4711H148.381C148.297 20.4707 148.213 20.4895 148.137 20.526C148.061 20.5626 147.994 20.6159 147.941 20.682C147.889 20.7482 147.852 20.8254 147.834 20.9078C147.815 20.9902 147.816 21.0757 147.835 21.1579C147.941 21.5788 148.142 21.9697 148.423 22.3002C148.909 22.8563 149.529 23.279 150.224 23.5283C151.077 23.84 151.98 23.9906 152.888 23.9725C153.971 23.9781 155.05 23.8405 156.097 23.5631C156.936 23.3364 157.745 23.0098 158.506 22.5905C158.572 22.5548 158.644 22.5327 158.719 22.5256C158.793 22.5184 158.869 22.5264 158.94 22.5491C159.011 22.5717 159.078 22.6085 159.135 22.6573C159.191 22.706 159.238 22.7658 159.271 22.8329L160.714 25.7201C160.777 25.8457 160.791 25.9906 160.752 26.1257C160.713 26.2609 160.625 26.3763 160.504 26.449C159.918 26.789 159.299 27.0709 158.658 27.2909C157.692 27.6307 156.701 27.8929 155.693 28.0748C154.707 28.2609 153.705 28.3572 152.701 28.3623ZM148.83 16.6214H155.626C155.712 16.6213 155.796 16.6015 155.873 16.5635C155.95 16.5256 156.018 16.4704 156.07 16.4023C156.122 16.3343 156.158 16.2551 156.175 16.1709C156.192 16.0868 156.19 15.9998 156.168 15.9168C156.015 15.3417 155.673 14.835 155.196 14.4788C154.381 13.9059 153.396 13.6236 152.4 13.6775C151.357 13.6371 150.326 13.9167 149.445 14.4788C148.93 14.8128 148.531 15.2981 148.304 15.868C148.272 15.9527 148.262 16.0437 148.273 16.1334C148.284 16.223 148.317 16.3085 148.369 16.3826C148.421 16.4567 148.49 16.5171 148.57 16.5586C148.65 16.6002 148.739 16.6218 148.83 16.6214Z" fill="white"/>
<path d="M91.3612 13.5671C91.3612 13.5671 85.5958 17.9048 83.4103 19.5751C83.3439 19.6259 83.2944 19.6955 83.2682 19.7749C83.242 19.8542 83.2403 19.9396 83.2633 20.0199C83.2864 20.1002 83.3331 20.1718 83.3974 20.2251C83.4618 20.2785 83.5407 20.3112 83.6239 20.319L86.9554 20.6363C87.1027 20.6503 87.2452 20.6959 87.3734 20.7698C87.5015 20.8438 87.6122 20.9445 87.698 21.0651L89.6385 23.7916C89.6869 23.8598 89.7547 23.9118 89.8331 23.9408C89.9114 23.9698 89.9967 23.9745 90.0778 23.9543C90.1589 23.9342 90.232 23.89 90.2876 23.8276C90.3433 23.7652 90.3788 23.6875 90.3895 23.6047C90.7433 20.8767 91.6171 13.7149 91.6171 13.7149C91.6258 13.6824 91.6235 13.6479 91.6106 13.6168C91.5977 13.5857 91.5749 13.5598 91.5457 13.543C91.5166 13.5261 91.4827 13.5194 91.4494 13.5238C91.416 13.5281 91.385 13.5433 91.3612 13.5671Z" fill="#051B43"/>
</g>
<defs>
<clipPath id="clip0_1_414">
<rect width="180" height="42.1617" fill="white" transform="translate(0 0.918945)"/>
</clipPath>
</defs>
</svg>
